<?xml version="1.0" standalone="no"?>
<!DOCTYPE svg PUBLIC "-//W3C//DTD SVG 1.1//EN" "http://www.w3.org/Graphics/SVG/1.1/DTD/svg11.dtd" >
<!--
2013-9-30: Created.
-->
<svg>
<metadata>
Created by iconfont
</metadata>
<defs>

<font id="iconfont" horiz-adv-x="1024" >
  <font-face
    font-family="iconfont"
    font-weight="500"
    font-stretch="normal"
    units-per-em="1024"
    ascent="896"
    descent="-128"
  />
    <missing-glyph />
    
    <glyph glyph-name="leimu" unicode="&#58947;" d="M241.5290441304966 606.2776585957329l780.6932312532551 0 0-136.6155432037908-780.6932312532551 0 0 136.6155432037908ZM85.38993211116896 664.8268453934638L65.87196274394172 664.8268453934638 65.87196274394172 20.77998214222066 85.38993211116896 20.77998214222066 222.0122357768972 20.77998214222066 222.0122357768972 40.29715288657053 85.38993211116896 40.29715288657053 85.38993211116896 274.4973853904205 222.0122357768972 274.4973853904205 222.0122357768972 294.0133939851214 85.38993211116896 294.0133939851214 85.38993211116896 528.2113021896731 222.0122357768972 528.2113021896731 222.0122357768972 547.727309648353 85.38993211116896 547.727309648353ZM7.320376669515743 840.4767300859548l780.6932312532551 0 0-136.61670535343993-780.6932312532551 0 0 136.61670535343993ZM241.5290441304966 98.84750183395045l780.6932312532551 0 0-136.61786863911024-780.6932312532551 0 0 136.61786863911024ZM241.5290441304966 352.56374293250155l780.6932312532551 0 0-136.61786863911024-780.6932312532551 0 0 136.61786863911024Z"  horiz-adv-x="1024" />

    
    <glyph glyph-name="gly" unicode="&#58971;" d="M633.524047 236.57214199999999c0 0-23.665209 5.116802-24.304809 24.304809 0 21.106808 0 48.609619 0 48.609619s81.229232 72.914428 97.219238 170.773267c43.492817 0 67.797626 110.011243 24.304809 146.468457C719.870081 678.5359149999999 785.748907 894.7208 512 894.7208c-273.748907 0-207.870081-234.733292-219.382886-267.992505-43.492817-36.457214-19.188007-146.468457 24.304809-146.468457C332.91193 383.04060000000004 414.780762 310.126171 414.780762 310.126171s0-37.736415 0-48.609619c0-17.269207-24.304809-24.304809-24.304809-24.304809-72.914428-12.792005-390.156152-170.773267-390.156152-315.962523l0-49.249219 1023.3604 0 0 49.249219C1023.6802 65.79887599999995 705.798876 225.698938 633.524047 236.57214199999999zM463.390381 187.96252300000003l0 24.304809 97.219238 0 0-24.304809 0-24.304809-24.304809-24.304809-48.609619 0-24.304809 24.304809L463.390381 187.96252300000003 463.390381 187.96252300000003zM439.085572-55.72517200000004c0 117.046846 48.609619 146.468457 48.609619 146.468457l48.609619 0c0 0 48.609619-26.22361 48.609619-146.468457L439.085572-55.72517200000004z"  horiz-adv-x="1024" />

    
    <glyph glyph-name="hz" unicode="&#58893;" d="M2.48922972 694.50306582c42.58386151-14.25923327 84.76611978-29.8776488 127.90363642-42.23100795 24.23779409-6.92359116 48.32469662-0.69758231 70.19581826 13.15888628 44.51527024 28.1818614 90.47329439 53.67901883 140.2244954 71.61419678 42.70225291 15.40832882 83.22122397 11.55711716 121.15647146-13.98182441 4.76700657-3.21514633 8.86312581-7.4946573 14.13271597-12.02720176-21.45094707-11.89952409-41.82824328-22.76950553-61.77027687-34.42644272-24.00333197-14.02477115-48.0055036-28.0901661-71.30428887-43.20599802-42.60127135-27.71177681-59.15057095-75.50835406-42.76841247-120.94638361 15.25859759-42.37377365 61.33269246-72.99079003 101.9538054-66.40148103 13.49432993 2.22390676 26.9224992 6.88180591 39.5625524 12.37076904 32.46253386 14.07352083 64.40507198 29.26479739 96.59832283 43.97786575 31.15442199 14.24182228 55.89479971 9.65124305 80.36705592-14.76297838 62.57580514-62.45857407 125.10169911-124.95777194 187.74366491-187.38152516 18.91829389-18.86606201 20.05926467-46.81462279 2.38408346-64.92738842-17.96071371-18.39481707-45.90695265-17.43839726-65.64818464 2.09855097-20.20899475 20.05810318-40.36691913 40.18352853-60.99724881 59.80520762-4.11236988 3.97888933-8.5601823 12.67371254-15.76118235 6.07743913-1.52748483-1.44391427 2.28310192-11.38068982 5.92422687-15.34332962 18.91829389-20.82997092 38.48890261-41.03780532 57.99335065-61.33153211 23.3486953-24.27145461 18.48186983-60.57823571-10.08650676-74.39407936-18.14526579-8.79464441-38.40533094-4.01138833-54.21642444 11.81827538-24.84252075 24.77519972-49.97057284 49.33218682-75.14737576 73.7533715-3.24068209 3.15595119-7.70474515 5.15235913-12.80719424 8.49402276-2.20069286-11.26462026 4.01022798-16.56670947 8.79464439-21.78871145 18.63159991-20.19158489 37.6508742-40.01638632 56.65041793-59.85279581 8.56134378-8.88169715 14.43565946-18.76740232 14.77226351-31.47361502 0.46892423-19.16900552-9.5676725-35.34920093-26.65553808-42.6685924-17.38848722-7.45403239-36.45767269-3.15595119-50.02048401 10.84212387-21.50085711 22.02433392-43.18858702 43.91170508-64.87631804 65.78282672-3.49023338 3.49139373-7.16617805 6.98278744-11.32961946 9.55142298-2.29819107 1.44275393-5.72458561 0.95525832-8.64375281 1.3417724 0.03366053-3.00389812-0.85543827-6.49529186 0.33544252-8.9292865 1.86292735-3.77576585 4.93530802-7.06751834 7.88929611-10.17355951 16.85340345-17.72509125 34.24189067-35.03116825 50.7761011-53.1242022 14.51923003-15.81341421 15.34100778-39.07621712 3.10487966-55.76015876-15.14136653-20.63149115-44.58143091-24.40725702-64.01855793-7.53644259-8.69482435 7.5863526-16.43322888 16.32992663-24.17163455 24.94234079-1.57739484 1.76310731-1.77935681 5.3879816-1.52748483 8.00420646 4.6497755 48.54406959-19.95712276 89.2475927-64.57221304 107.46017841-3.59121378 1.42650328-7.23466056 5.57369404-8.54277243 9.31463902-10.4567713 29.81148811-29.72675722 51.00940286-59.00084088 63.33142223-3.59237526 1.52632446-7.18358904 5.60619419-8.62750332 9.28097851-10.70980362 27.7976692-29.40872457 47.38568894-56.93595042 58.89985934-3.65853482 1.52748483-7.62001311 5.40423225-8.92928647 9.08133841-18.88463338 52.65527909-71.80803396 75.58379984-125.01696822 62.91124764-37.36418134-8.87937531-63.2815122-31.62450659-78.08511435-67.07352757-0.36910303-0.90650866-0.85659862-1.76426765-1.37775361-2.61970592-0.35169317-0.53624412-0.83918764-1.00749021-1.77935681-2.01381894-17.75875174 6.16100968-35.81928552 12.42068019-53.84732026 18.71633079C2.48922972 460.01326064 2.48922972 577.26628744 2.48922972 694.50306582L2.48922972 694.50306582zM1020.02971328 352.71209743c-35.50125288-6.460471-70.80054377-13.7125414-106.43527836-18.96588208-24.99341119-3.72701619-46.62891035 4.81691659-64.87631804 22.9285219-68.41646144 67.86280633-137.20202481 135.3402578-205.61964659 203.17752833-20.82881057 20.64541881-45.28597762 25.55519222-70.9839355 13.63825712-39.22710869-18.22071158-77.39681831-38.83363026-115.98670132-58.49709576-11.78345453-5.99154789-23.39860647-12.32898376-35.21456001-18.2787464-28.66935698-14.4182496-62.42491355-3.61674954-77.49896021 24.68234295-14.72003161 27.58642101-4.78325608 61.82018691 22.77879066 77.37244289 80.63633891 45.52972485 161.33999883 90.92596911 242.02740924 136.36399751 0.28553251 0.16830144 0.56990465 0.3099079 0.85659865 0.50374512 34.49260229 22.51763242 66.80424457 18.16964007 97.42126096-7.76277995 34.34287222-29.11506732 68.83663486-58.06879644 103.09477622-87.28368382 16.81858258-14.3602137 35.81928552-18.99257819 57.22148291-14.32655317 48.15639515 10.48230592 96.26404067 21.05746863 144.38677531 31.5223647 2.85416805 0.62097617 5.85922766 0.64651192 8.8294653 0.95641868C1020.02971328 556.72185016 1020.02971328 454.7007237 1020.02971328 352.71209743L1020.02971328 352.71209743zM304.97648329 98.64936168999998c-10.08766711-2.6684556-18.56427888-5.5040523-27.20919319-7.06519764-13.94816501-2.58604541-27.8963289-3.00389812-39.57996224 7.11626802-12.9406748 11.23095973-17.75875174 25.12805325-12.38701967 41.89672578 2.58488506 8.02393815 5.32066169 16.0478752 8.45920187 25.51456729-10.32212924-2.63595544-19.10168449-5.17209082-27.99731043-6.98278746-31.95878875-6.58118423-56.43220531 20.97970214-46.15998612 51.83117953 2.40033296 7.21840993 5.03628954 14.28360755 8.22473976 23.36494593-6.27708038-1.5762345-11.27970942-2.43515384-15.97939382-4.09612038-45.28829832-15.87841339-68.03110775 21.77130045-60.42734412 55.0231119 7.5190327 32.91636782 34.84545584 61.43483435 66.16817926 65.91514696 36.39035165 5.22084049 66.03353835-24.72412819 60.22538218-60.84519688-0.40276356-2.58604541-0.83918764-5.17209082-1.4938243-9.23339033 20.17533425 2.82050752 38.90791568 1.24079084 53.76374971-13.56281133 15.13904582-15.09029616 15.94573444-33.87278761 12.53907161-54.50195693 21.50085711 1.99872976 41.32565966 0.51999463 55.97953175-16.81742224 14.38574945-17.05420504 14.88833419-36.55865309 8.77839489-57.47335602 7.90670712 0.75329639 14.72235348 2.14729949 21.50201747 1.96274852 36.12222904-0.95641869 59.45351445-33.63716517 49.88584194-69.50752107-10.17123766-38.13604795-64.1532-65.69809468-100.8615843-51.46555863-21.36853689 8.27697164-31.473615 28.56953694-24.55698712 50.591549C296.71808302 79.39794710000001 300.79679237 88.09277033000001 304.97648329 98.64936168999998L304.97648329 98.64936168999998zM304.97648329 98.64936168999998"  horiz-adv-x="1024" />

    
    <glyph glyph-name="dui" unicode="&#58938;" d="M512-128C228.266667-128 0 100.26666699999998 0 384 0 667.733333 228.266667 896 512 896s512-228.266667 512-512C1024 100.26666699999998 795.733333-128 512-128zM512 810.666667C277.333333 810.666667 85.333333 618.666667 85.333333 384c0-234.666667 192-426.666667 426.666667-426.666667s426.666667 192 426.666667 426.666667C938.666667 618.666667 746.666667 810.666667 512 810.666667zM456.533333 140.79999999999995C450.133333 132.26666699999998 439.466667 128 426.666667 128s-23.466667 4.266667-29.866667 12.8l-170.666667 170.666667C217.6 317.866667 213.333333 328.53333299999997 213.333333 341.33333300000004c0 23.466667 19.2 42.666667 42.666667 42.666667 12.8 0 23.466667-4.266667 29.866667-12.8l140.8-140.8 311.466667 311.466667c8.533333 8.533333 19.2 12.8 29.866667 12.8 23.466667 0 42.666667-19.2 42.666667-42.666667 0-12.8-4.266667-23.466667-12.8-29.866667L456.533333 140.79999999999995z"  horiz-adv-x="1024" />

    
    <glyph glyph-name="info" unicode="&#58949;" d="M512-114.66666667000004C232.70000033-114.66666667000004 8 110.03333366000004 8 389.33333333S232.70000033 893.33333333 512 893.33333333s504-224.70000033 504-504S791.29999967-114.66666667000004 512-114.66666667000004zM512 809.33333366C280.99999967 809.33333366 91.99999967 620.33333366 91.99999967 389.33333333s189-420.00000033 420.00000033-420.00000033 420.00000033 189 420.00000033 420.00000033S743.00000033 809.33333366 512 809.33333366zM512 53.333333659999994c-35.70000033 0-63 27.29999967-63 63s27.29999967 63 63 63 63-27.29999967 63-63S547.70000033 53.333333659999994 512 53.333333659999994zM512 263.33333332999996c-35.70000033 0-63 27.29999967-63 63L449 662.333333c0 35.70000033 27.29999967 63 63 63s63-27.29999967 63-63l0-335.99999967C575 290.633333 547.70000033 263.33333332999996 512 263.33333332999996z"  horiz-adv-x="1024" />

    
    <glyph glyph-name="cuo" unicode="&#58986;" d="M512-128C228.266667-128 0 100.26666699999998 0 384 0 667.733333 228.266667 896 512 896s512-228.266667 512-512C1024 100.26666699999998 795.733333-128 512-128zM512 810.666667C277.333333 810.666667 85.333333 618.666667 85.333333 384c0-234.666667 192-426.666667 426.666667-426.666667s426.666667 192 426.666667 426.666667C938.666667 618.666667 746.666667 810.666667 512 810.666667zM755.2 140.79999999999995c-17.066667-17.066667-42.666667-17.066667-59.733333 0L512 324.266667l-185.6-185.6c-17.066667-17.066667-42.666667-17.066667-59.733333 0-17.066667 17.066667-17.066667 42.666667 0 59.733333l185.6 185.6-185.6 185.6c-17.066667 17.066667-17.066667 42.666667 0 59.733333 17.066667 17.066667 42.666667 17.066667 59.733333 0l185.6-185.6 185.6 185.6c17.066667 17.066667 42.666667 17.066667 59.733333 0 17.066667-17.066667 17.066667-42.666667 0-59.733333L571.733333 384l185.6-185.6C772.266667 183.46666700000003 772.266667 155.73333300000002 755.2 140.79999999999995z"  horiz-adv-x="1024" />

    
    <glyph glyph-name="qb" unicode="&#58908;" d="M771.61904552 103.75230894000003c17.8489539 0 32.31312264-14.25644906 32.31312265-31.85135719 0-17.59042485-14.46416875-31.84836874-32.31312265-31.84836874l-108.77490967 0 0-35.64709961c0-17.59042485-14.46416875-31.84836874-32.31013419-31.84836872-17.84596548 0-32.31013419 14.25644906-32.3101342 31.84836872L598.22386746 40.05407780999997l-108.7778981 0c-17.84297702 0-32.30714457 14.25644906-32.30714458 31.84836873 0 17.59490811 14.46416875 31.8513572 32.30714458 31.85135721l108.7778981 0 0 73.33104763-108.7778981 0c-17.84297702 0-32.30714457 14.25644906-32.30714458 31.8513572 0 17.59042485 14.46416875 31.84836874 32.30714458 31.84836875l108.7778981 0 0 32.34749383-107.05935341 105.5410567c-12.62159018 12.4377804-12.62159018 32.60303329 0 45.04230849 12.61710694 12.4377804 33.07227043 12.4377804 45.69684906 0l93.67263855-92.33964524 93.675627 92.33964524c12.61710694 12.4377804 33.07227043 12.4377804 45.69386061 0 12.61710694-12.4377804 12.61710694-32.60303329 0-45.04230849l-107.05935342-105.5410567 0-32.34749383 108.77490967 0c17.8489539 0 32.31312264-14.25644906 32.31312265-31.84836875 0-17.59490811-14.46416875-31.8513572-32.31312265-31.8513572l-108.77490967 0 0-73.33104763L771.61904552 103.75380374999997zM1072.27618947 330.41489820000004c-27.37267992 54.51074188-70.21375684 105.686012-134.828046 161.05602682-62.46685659 53.38696301-109.65659767 109.92708164-132.22631969 138.87783422-0.82938497 1.06400296-2.26997279 1.44058899-3.5162919 0.91755284-54.25221284-22.81928456-111.84288585-34.38882555-171.17003542-34.38882555s-116.91632777 11.56954099-171.16704697 34.38882555c-1.24482429 0.52452978-2.68690691 0.14645011-3.51629189-0.91755284-22.57121565-28.95374099-69.76693478-85.49535444-132.23080292-138.88082265-64.6098071-55.3670252-107.45237764-106.54229648-134.82655239-161.0530372-34.67724253-69.05261833-44.06199013-142.85589156-28.6937183-225.62249619 15.63277893-84.26099148 64.72786292-161.17109417 138.24570874-216.56053563 84.60320513-63.74156764 199.46923585-97.70897702 332.17674762-98.22603394 0.00747172 0 0.01643819 0 0.02390988 0 132.71050021 0.51855173 247.57652977 34.4844663 332.17674763 98.22603394 73.51485624 55.38944143 122.61143617 132.29804935 138.2427203 216.56053563C1116.3381796 187.55900667000003 1106.9519372 261.36078507 1072.27618947 330.41489820000004zM1044.18919192 115.32334474000004c-22.77445204-122.77581813-144.72536963-266.52385901-413.43850412-267.57441224-269.03592267 1.05055438-391.09443475 144.80158255-413.87187641 267.58337874-23.73683739 127.83730625 18.05966317 224.09523297 144.26509782 332.24250043 40.19451809 34.3514659 78.81096354 73.35047428 114.80625365 115.94348225 49.67789485-16.18121862 101.67806786-24.38540106 154.58533243-24.38540107 52.90875938 0 104.90893121 8.20418246 154.58832087 24.38540107 35.97287504-42.57358136 74.56989385-81.55913997 114.74946739-115.89865094C1026.12056342 339.43501589000005 1067.93200739 243.16214464999996 1044.18919192 115.32334474000004zM354.50733806 830.03766971c25.31192158-17.82653883 44.30258619-36.12679688 58.10025827-56.0081172 10.48312176-14.99019216 38.32504001-54.80812419 42.35540037-85.97804133l1.88890472-14.68533814c0.13449519-1.05204801 0.81743004-1.95316383 1.79326397-2.36860315l13.6303005-5.80419772c50.19345813-21.38766207 103.43994907-32.2324253 158.26152303-32.2324253 54.82157396 0 108.0680649 10.84476441 158.26152304 32.23093167l13.6317953 5.80569251c0.97583395 0.41543931 1.65876879 1.31655513 1.79326399 2.36860317l1.8889047 14.68384333c4.02737195 31.15646737 31.89768334 71.02520883 42.44356944 86.11403014 13.73939099 19.79315126 32.77638291 38.1128371 58.21831522 56.02306055 22.11094501 15.86739691 36.23738218 40.49488886 36.86950762 64.27058071 0.5155633 19.55703845-7.88288906 37.29092382-23.64269148 49.92745739-9.57005217 7.71551866-22.28279984 11.62782208-37.784072 11.62782208-12.92495057 0-27.60879272-2.60919921-44.8883867-7.97554137-11.83554173-3.67768543-21.63572981-5.82362436-27.67006342-6.06422155-8.10256483 1.72153315-11.99544158 4.63708231-22.76399192 13.33740024-7.17604432 5.79523121-16.10351089 13.00863635-28.95224736 21.07832363-12.72918584 7.88438387-29.41401281 12.22707115-46.9805278 12.22707113-25.65413524 0-49.71226604-9.07989357-62.76722851-23.67855631-4.74766644-5.22587008-11.92520557-10.76107861-17.65617882-14.83029344-5.69959047 4.04381014-12.82632022 9.52820927-17.48880724 14.65395538C599.84378297 979.50472771 575.77070877 988.6608342 550.22416921 988.6608342c-17.56651498 0-34.3424994-4.39050822-47.26147189-12.37352128-12.67837646-7.96806967-21.60883149-15.17997998-28.78338101-20.97521119-10.81338166-8.73767876-14.77201236-11.64127184-24.63795321-13.48086195-6.07767016 0.08816904-16.06017319 3.18603201-25.79610213 6.20768209-17.24372793 5.35887047-31.92607647 7.96358641-44.88838667 7.96358641-15.5042618 0-28.20505336-3.89586639-37.7452176-11.57850749-15.78520593-12.65745502-24.19710804-30.39582481-23.68303957-49.94987366C318.0607426 870.69843529 332.26040424 846.01415709 354.50733806 830.03766971zM377.00981248 899.18592759c0.30784364 0.0672476 0.98779005 0.16587676 2.08466942 0.16587675 6.73370668 0 17.27361474-3.27420105 27.50568029-6.45425616 14.2235727-4.42786786 29.31388882-8.75262213 43.71230363-8.75112851 4.36062027 0 8.53593597 0.40348436 12.41386935 1.19550969 22.42924879 4.61616087 34.70414089 14.52543826 47.73519232 25.04741449l0.25852904 0.20921444c6.13445761 4.96435261 13.08933251 10.59221225 22.79238506 16.67884891 4.34268727 2.68840173 10.42035859 4.16933881 17.11521083 4.16933882 11.10927033 0 18.29876442-3.98403425 19.54358868-5.37680346 16.46066911-18.08357306 42.94568297-33.63565465 45.91054678-35.34822127l12.95782694-7.49883252c0.9250257-0.53498993 2.06972602-0.53498993 2.99475054 0l12.95782697 7.49883252c2.96486263 1.71256663 29.45585571 17.27062628 46.08389521 35.53352584 1.02066643 1.1447003 8.15486787 5.19149889 19.37173387 5.19149889 6.59771667 0 12.78148888-1.48542034 16.94933291-4.06921485 9.87042412-6.18676063 16.82679383-11.81611511 22.96274508-16.78196246l0.29290023-0.23760762c12.9936918-10.49059463 25.26858388-20.39987201 47.75462013-25.02499823 3.7778094-0.76662065 7.87093413-1.15516045 12.16131836-1.15516042 14.61809059 0 30.32708241 4.50258714 43.95140601 8.7361839 10.19022269 3.16660538 20.72863709 6.43931162 27.45935416 6.43931164 1.1178008 0 1.79924203-0.10311242 2.09512956-0.17185482 1.87545494-1.56163442 1.86051156-2.28790582 1.84257854-3.17706552-0.11357375-4.11255253-4.10507967-12.65596021-12.60216236-18.75455297-30.94276968-21.78965162-54.54361827-44.71055381-72.14450444-70.06730673-18.02529198-25.77368703-39.7820672-59.69775752-48.89633081-94.43328115-38.71656943-14.56279793-79.66575203-21.94357345-121.73721986-21.94357342-42.07296144 0-83.02214406 7.38077553-121.73871349 21.94357342-9.10978152 34.71460218-30.84115205 68.60729108-48.83954453 94.34959538-17.64272904 25.4045727-41.19276827 48.30455343-71.97713286 69.99109261-8.68089247 6.23757002-12.72619624 14.80937201-12.82632022 18.9234182C375.12987427 896.85916849 375.10895284 897.59590118 377.00981248 899.18592759z"  horiz-adv-x="1226" />

    
    <glyph glyph-name="shape1" unicode="&#58899;" d="M1170.285714-126.837685C1170.285714-126.837685 1167.952144 92.839954 1153.95072 116.086267 1134.115368 149.793417 1087.443953 173.039728 999.935053 209.07151 913.592936 245.103292 885.590087 275.323496 885.590087 340.413168 885.590087 379.931895 912.42615 367.146425 924.094003 438.047673 928.761145 468.267877 952.096852 438.047673 956.763994 506.624291 956.763994 533.357548 943.929355 540.331441 943.929355 540.331441 943.929355 540.331441 950.930066 579.850171 953.263638 611.232689 956.763994 649.589104 933.428286 748.385925 813.249395 748.385925 693.070502 748.385925 670.901581 649.589104 673.235152 611.232689 675.568722 581.012485 682.569435 540.331441 682.569435 540.331441 682.569435 540.331441 669.734795 533.357548 669.734795 506.624291 674.401936 439.209989 697.737644 468.267877 702.404785 438.047673 714.07264 365.98411 740.908703 378.76958 740.908703 340.413168 740.908703 296.245177 728.074063 268.349603 693.070502 242.778661 882.089732 148.6311 907.759009 128.871737 907.759009 45.185017L907.759009-128 1170.285714-128 1170.285714-126.837685ZM599.727675 176.526674C484.215923 224.181612 446.878791 264.862656 446.878791 352.036323 446.878791 404.340522 481.882353 386.905788 497.050562 482.215664 502.884489 521.734393 534.387694 483.37798 540.221621 572.876277 540.221621 608.908059 522.719841 618.206583 522.719841 618.206583 522.719841 618.206583 530.887338 671.673099 534.387694 712.354143 539.054835 763.496027 508.718416 896 348.868822 896 189.019227 896 158.682809 763.496027 163.34995 712.354143 166.850306 671.673099 175.017804 618.206583 175.017804 618.206583 175.017804 618.206583 157.516023 608.908059 157.516023 572.876277 163.34995 482.215664 194.853155 521.734393 200.687082 482.215664 215.855291 386.905788 250.858853 404.340522 250.858853 352.036323 250.858853 264.862656 213.521721 224.181612 98.00997 176.526674 63.006409 161.416572 0 139.332577 0 84.703746L0-126.837685 810.915824-126.837685 810.915824 32.399547C814.416179 82.379114 715.239424 128.871737 599.727675 176.526674L599.727675 176.526674Z"  horiz-adv-x="1171" />

    
    <glyph glyph-name="gengduo" unicode="&#59095;" d="M0 384c0-16.768 3.328-33.536 9.728-48.96 6.4-15.488 15.872-29.696 27.776-41.536 11.84-11.84 26.048-21.312 41.536-27.712C94.528 259.328 111.232 256 128 256c16.768 0 33.536 3.328 48.96 9.728s29.696 15.872 41.536 27.712c11.84 11.84 21.312 26.048 27.712 41.536C252.672 350.528 256 367.23199999999997 256 384c0 16.768-3.328 33.472-9.728 48.96-6.4 15.488-15.872 29.696-27.712 41.536C206.656 486.336 192.448 495.872 176.96 502.272 161.472 508.672 144.768 512 128 512 111.232 512 94.528 508.672 79.04 502.272c-15.488-6.4-29.696-15.872-41.536-27.776C25.664 462.656 16.128 448.448 9.728 432.96 3.328 417.472 0 400.768 0 384L0 384zM0 384M384 384c0-16.768 3.328-33.536 9.728-48.96 6.4-15.488 15.872-29.696 27.712-41.536 11.84-11.84 26.048-21.312 41.536-27.712C478.528 259.328 495.232 256 512 256c16.768 0 33.472 3.328 48.96 9.728 15.488 6.4 29.696 15.872 41.536 27.712 11.84 11.84 21.312 26.048 27.776 41.536C636.672 350.528 640 367.23199999999997 640 384c0 16.768-3.328 33.472-9.728 48.96-6.4 15.488-15.872 29.696-27.776 41.536C590.656 486.336 576.448 495.872 560.96 502.272 545.472 508.672 528.768 512 512 512 495.232 512 478.528 508.672 463.04 502.272c-15.488-6.4-29.696-15.872-41.536-27.776C409.664 462.656 400.128 448.448 393.728 432.96 387.328 417.472 384 400.768 384 384L384 384zM384 384M768 384c0-16.768 3.328-33.536 9.728-48.96 6.4-15.488 15.872-29.696 27.776-41.536 11.84-11.84 26.048-21.312 41.536-27.712C862.464 259.328 879.232 256 896 256c16.768 0 33.472 3.328 48.96 9.728 15.488 6.4 29.696 15.872 41.536 27.712 11.84 11.84 21.312 26.048 27.776 41.536C1020.672 350.528 1024 367.23199999999997 1024 384c0 16.768-3.328 33.472-9.728 48.96-6.4 15.488-15.872 29.696-27.776 41.536-11.84 11.84-26.048 21.312-41.536 27.776C929.472 508.672 912.768 512 896 512c-16.768 0-33.536-3.328-48.96-9.728-15.488-6.4-29.696-15.872-41.536-27.776-11.84-11.84-21.312-26.048-27.776-41.536C771.328 417.472 768 400.768 768 384L768 384zM768 384"  horiz-adv-x="1024" />

    
    <glyph glyph-name="16xitongyinqing" unicode="&#58902;" d="M979.346706 480.61101l-64.145961 0c-10.26199 42.854888-26.916416 83.186896-49.298463 119.700488l45.37777 45.428909c17.21696 17.234006 17.21696 45.173212 0 62.407218l-74.834113 74.902299c-8.60848 8.625526-18.989795 12.93829-31.160993 12.93829-12.188244 0-22.569559-4.312763-31.178039-12.93829l-45.343677-45.394816c-36.462453 22.382048-76.675134 39.087613-119.427744 49.366649L609.335486 851.64502c0 12.188244-4.295717 22.586606-12.921243 31.195086-8.60848 8.625526-18.989795 12.93829-31.160993 12.93829l-105.824641 0c-24.342395 0-44.082236-19.756888-44.082236-44.133376l0-64.640309c-42.667377-10.26199-82.863012-26.899369-119.257279-49.26437L250.404488 783.51018c-17.21696 17.251053-45.122072 17.251053-62.356079 0l-74.817066-74.902299c-8.60848-8.60848-12.904197-19.006842-12.904197-31.195086s4.295717-22.586606 12.904197-31.212132l45.786886-45.820979c-22.296815-36.394267-39.206938-76.436483-49.468928-119.10386L44.704433 481.275824c-24.359441 0-44.082236-19.756888-44.082236-44.133376l0-105.909873c0-24.376488 19.739841-44.133376 44.082236-44.133376l64.810774 0c10.21085-42.684423 26.780044-82.880059 49.042766-119.291372l-45.803932-45.838025c-17.21696-17.234006-17.21696-45.173212 0-62.407218l74.817066-74.902299c17.21696-17.234006 45.122072-17.234006 62.356079 0l45.701653 45.752793c36.37722-22.382048 76.402391-39.39445 119.069767-49.707579l0-64.623262c0-12.188244 4.295717-22.586606 12.904197-31.212132 8.60848-8.625526 19.006842-12.921243 31.178039-12.921243l105.807594 0c24.342395 0 44.082236 19.739841 44.082236 44.133376l0 64.435751c42.769656 10.227897 83.033477 26.84823 119.512976 49.196185l45.463002-45.514142c17.21696-17.234006 45.122072-17.234006 62.339032 0l74.834113 74.902299c8.60848 8.60848 12.904197 19.006842 12.904197 31.195086s-4.295717 22.586606-12.904197 31.212132l-45.37777 45.411863c22.416141 36.513592 39.428543 76.692181 49.724626 119.530023l64.180054 0c12.171197 0 22.569559 4.312763 31.178039 12.921243 8.60848 8.625526 12.921243 19.023888 12.921243 31.212132l0 105.909873C1023.445989 460.871169 1003.706148 480.61101 979.346706 480.61101zM224.71542 249.818515c-18.989795 40.758169-29.780227 86.101846-29.780227 134.03659 0 166.118094 127.388457 302.353681 289.705182 316.434086l0-230.229961c-37.229545-12.290523-64.145961-47.37221-64.145961-88.829285 0-5.863994 0.613674-11.557524 1.636464-17.114681L224.71542 249.818515zM744.105076 166.836177l-14.506567-14.523614c-56.645503-53.321436-132.843335-86.067753-216.712091-86.204125l-1.056883 0c-106.318989 0.170465-200.211084 52.775948-257.691865 133.218358l196.085832 113.529657c16.671472-15.597543 38.968288-25.211766 63.56638-25.211766 24.887883 0 47.440396 9.818781 64.163007 25.757254l193.937973-112.285262C763.418754 189.064807 754.162508 177.558423 744.105076 166.836177zM829.456876 370.490653c-1.755789-42.241215-11.966639-82.181152-28.655158-118.575419l-195.216461 113.035308c0.937557 5.30146 1.500092 10.722245 1.500092 16.279403 0 41.457076-26.899369 76.538762-64.128914 88.829285L542.956435 700.067587c71.953255-6.886784 136.866308-37.826172 186.676167-84.704034l13.995172-13.995172c50.423532-53.696459 82.419803-124.933762 85.812056-203.603336L829.43983 370.490653z"  horiz-adv-x="1024" />

    
    <glyph glyph-name="fl" unicode="&#58889;" d="M912.4977777777779 208.1631662730158L912.4977777777779 371.97507340190475 912.4977777777779 390.17637644190467C912.4977777777779 410.2810133130158 896.2057728 426.579042824127 876.0886567822221 426.579042824127L548.4088888888889 426.579042824127 548.4088888888889 572.1896264330159 616.0188950755555 572.1896264330159C638.9994052266667 572.1896264330159 657.6355555555556 590.8186804419047 657.6355555555556 613.7978502907936L657.6355555555556 821.8025697930159C657.6355555555556 844.7778393396825 639.0033066666667 863.4107936507937 616.0188950755555 863.4107936507937L407.9811049244444 863.4107936507937C385.0005947733334 863.4107936507937 366.3644444444445 844.7817396419048 366.3644444444445 821.8025697930159L366.3644444444445 613.7991507707936C366.3644444444445 590.822580744127 384.9966933333333 572.1896264330159 407.9811049244444 572.1896264330159L475.5911111111111 572.1896264330159 475.5911111111111 426.579042824127 147.9113432177778 426.579042824127C127.80314055111108 426.579042824127 111.50222222222226 410.2854426819047 111.50222222222226 390.17639692190477L111.50222222222226 353.77375101968255 111.50222222222226 206.86307197968245 43.89091555555558 206.86307197968245C20.911705884444473 206.86307197968245 2.27555555555557 188.23401797079362 2.27555555555557 165.25354764190467L2.27555555555557-42.74857090031742C2.27555555555557-65.72514092698407 20.90780444444448-84.35809523809519 43.89091555555558-84.35809523809519L251.93000618666667-84.35809523809519C274.9105163377777-84.35809523809519 293.5466666666666-65.72904122920636 293.5466666666666-42.74857090031742L293.5466666666666 165.25354764190467C293.5466666666666 188.23011766857144 274.9144177777778 206.86307197968245 251.93130666666667 206.86307197968245L184.32 206.86307197968245 184.32 353.77375101968255 475.5911111111111 353.77375101968255 475.5911111111111 208.1631662730158 407.9811049244444 208.1631662730158C385.0005947733334 208.1631662730158 366.3644444444445 189.5341122641271 366.3644444444445 166.55364193523792L366.3644444444445-41.44847660698417C366.3644444444445-64.42504663365094 384.9966933333333-83.05800094476194 407.9811049244444-83.05800094476194L616.0188950755555-83.05800094476194C638.9994052266667-83.05800094476194 657.6355555555556-64.428946935873 657.6355555555556-41.44847660698417L657.6355555555556 166.55364193523792C657.6355555555556 189.53021196190468 639.0033066666667 208.1631662730158 616.0188950755555 208.1631662730158L548.4088888888889 208.1631662730158 548.4088888888889 353.77375101968255 839.6800000000001 353.77375101968255 839.6800000000001 208.1631662730158 772.0699938133333 208.1631662730158C749.0894836622223 208.1631662730158 730.4533333333333 189.5341122641271 730.4533333333333 166.55364193523792L730.4533333333333-41.44847660698417C730.4533333333333-64.42504663365094 749.0855822222222-83.05800094476194 772.0699938133333-83.05800094476194L980.1077839644444-83.05800094476194C1003.0882941155555-83.05800094476194 1021.7244444444444-64.428946935873 1021.7244444444444-41.44847660698417L1021.7244444444444 166.55364193523792C1021.7244444444444 189.53021196190468 1003.0921955555557 208.1631662730158 980.1077839644444 208.1631662730158L912.4977777777779 208.1631662730158ZM439.1822222222222 790.6055018463493L584.8177777777778 790.6055018463493 584.8177777777778 644.9949182374603 439.1822222222222 644.9949182374603 439.1822222222222 790.6055018463493 439.1822222222222 790.6055018463493ZM220.7288888888889-11.552803433650979L75.0933333333333-11.552803433650979 75.0933333333333 134.05778017523812 220.7288888888889 134.05778017523812 220.7288888888889-11.552803433650979 220.7288888888889-11.552803433650979ZM584.8177777777778-10.252709140317506L439.1822222222222-10.252709140317506 439.1822222222222 135.35787446857148 584.8177777777778 135.35787446857148 584.8177777777778-10.252709140317506 584.8177777777778-10.252709140317506ZM948.9066666666668-10.252709140317506L803.271111111111-10.252709140317506 803.271111111111 135.35787446857148 948.9066666666668 135.35787446857148 948.9066666666668-10.252709140317506 948.9066666666668-10.252709140317506Z"  horiz-adv-x="1024" />

    
    <glyph glyph-name="fz" unicode="&#59010;" d="M671.6242338133333 415.99426978133334L671.6242338133333 737.9254976 510.658619904 898.8911115093332 349.6930048 737.9254976 349.6930048 630.6150875306666 27.761778176000064 630.6150875306666 27.761778176000064-120.55777817599994 993.5554604373332-120.55777817599994 993.5554604373332 415.99426978133334 671.6242338133333 415.99426978133334 671.6242338133333 415.99426978133334ZM242.38259592533342-13.247369301333379L135.07218705066668-13.247369301333379 135.07218705066668 94.06303957333319 242.38259592533342 94.06303957333319 242.38259592533342-13.247369301333379 242.38259592533342-13.247369301333379ZM242.38259592533342 201.37344964266663L135.07218705066668 201.37344964266663 135.07218705066668 308.6838609066666 242.38259592533342 308.6838609066666 242.38259592533342 201.37344964266663 242.38259592533342 201.37344964266663ZM242.38259592533342 415.99426978133334L135.07218705066668 415.99426978133334 135.07218705066668 523.3046786560001 242.38259592533342 523.3046786560001 242.38259592533342 415.99426978133334 242.38259592533342 415.99426978133334ZM564.3138249386668-13.247369301333379L457.003416064-13.247369301333379 457.003416064 94.06303957333319 564.3138249386668 94.06303957333319 564.3138249386668-13.247369301333379 564.3138249386668-13.247369301333379ZM564.3138249386668 201.37344964266663L457.003416064 201.37344964266663 457.003416064 308.6838609066666 564.3138249386668 308.6838609066666 564.3138249386668 201.37344964266663 564.3138249386668 201.37344964266663ZM564.3138249386668 415.99426978133334L457.003416064 415.99426978133334 457.003416064 523.3046786560001 564.3138249386668 523.3046786560001 564.3138249386668 415.99426978133334 564.3138249386668 415.99426978133334ZM564.3138249386668 630.6150875306666L457.003416064 630.6150875306666 457.003416064 737.9254976 564.3138249386668 737.9254976 564.3138249386668 630.6150875306666 564.3138249386668 630.6150875306666ZM886.2450515626667-13.247369301333379L778.934642688-13.247369301333379 778.934642688 94.06303957333319 886.2450515626667 94.06303957333319 886.2450515626667-13.247369301333379 886.2450515626667-13.247369301333379ZM886.2450515626667 201.37344964266663L778.934642688 201.37344964266663 778.934642688 308.6838609066666 886.2450515626667 308.6838609066666 886.2450515626667 201.37344964266663 886.2450515626667 201.37344964266663Z"  horiz-adv-x="1024" />

    
    <glyph glyph-name="bianji" unicode="&#58887;" d="M936.9855200410713 643.0108189516404c31.218550375363197 31.43533712423531 30.996378347281205 82.70997184298491-0.5318670078745835 114.5869610413225l-114.54656421427269 115.14979570605524c-31.56729421854501 31.80293010219494-82.46894804995212 32.13147684693835-113.74674570222942 0.6503576164433469l-35.05068349903538-35.7306647539358 228.82113829374097-230.44770565913632 35.05472212967117 35.791256049251025zM873.6274142424119 565.292314461059L634.8596981251914 805.7404599413792l-54.683967533270305-51.60721877904228 238.80811162918377-240.3754356629245zM212.220978912084 279.3998703049117l135.17625772607107-136.09860942257836-146.2040746816765-43.20372663005636-31.86756265831894 32.04664719237593 42.89537961392436 147.25568886025883z m-105.88454447096373-276.7753097982545c3.129260158098687 0 6.274680099086497 0.3824047971881638 9.429523949919968 1.3236082586462865l271.8996397572715 80.40207394394199c6.476653713643582 1.9429969031449734 11.512556523732703 5.9245896073305895 15.52511951494948 10.788139811146696l381.2312192575711 380.40043045849677-92.71983557401434 93.28805814812995-0.32181350187293745-0.38509809433635117-62.437100750726394 62.977047650045535 0.2746847470391534 0.3810581486140701-83.56365103764591 84.12514168397756-380.2886704626254-379.51712894046506c-5.266153414529178-4.260318712033548-9.647656032279675-9.615340411760926-11.687601112067412-16.570000450661336l-79.76652814672718-273.57737713830954c-3.5116662703733486-12.05115545939126-0.2248653252301783-24.918287898628414 8.50852021707325-33.702839511314906 6.472615083007799-6.457803263779267 15.063270342408776-9.93311396791158 23.916493141855064-9.93311396791158zM11.851339849443907-42.76183885591615h1009.0735040986776v-72.71895856181979H11.851339849443907z"  horiz-adv-x="1024" />

    
    <glyph glyph-name="ph" unicode="&#58921;" d="M821.5552 896H1024v-1023.9488h-202.4448zM546.7648 344.11519999999996h201.984v-472.064h-201.984zM269.6704 628.2752h208.9472v-756.224H269.6704zM0 146.84159999999997h199.2192v-274.7904H0z"  horiz-adv-x="1024" />

    
    <glyph glyph-name="shipin" unicode="&#58925;" d="M984.615385 856.6153850000001l-39.384615 0 0-78.769231-118.153846 0L827.076923 856.6153850000001 196.923077 856.6153850000001l0-78.769231L78.769231 777.846154 78.769231 856.6153850000001 39.384615 856.6153850000001C17.683692 856.6153850000001 0 838.931692 0 817.230769l0-866.461538c0-21.700923 17.683692-39.384615 39.384615-39.384615l39.384615 0 0 39.384615 118.153846 0 0-39.384615 630.153846 0 0 39.384615 118.153846 0 0-39.384615 39.384615 0c21.700923 0 39.384615 17.683692 39.384615 39.384615L1024 817.230769C1024 838.931692 1006.316308 856.6153850000001 984.615385 856.6153850000001zM196.923077 68.92307700000003L78.769231 68.92307700000003l0 118.153846 118.153846 0L196.923077 68.92307700000003zM196.923077 305.230769L78.769231 305.230769l0 118.153846 118.153846 0L196.923077 305.230769zM196.923077 541.538462L78.769231 541.538462 78.769231 659.692308l118.153846 0L196.923077 541.538462zM692.696615 358.16369199999997l-256.118154-149.385846c-4.174769-2.087385-8.743385-3.072-13.272615-3.072-5.435077 0-10.712615 1.457231-15.517538 4.292923C399.123692 215.23692300000005 393.846154 224.61046199999998 393.846154 234.61415399999998L393.846154 533.346462c0 10.043077 5.277538 19.416615 13.942154 24.654769 8.743385 5.277538 19.652923 5.750154 28.750769 1.181538l256.118154-149.346462C702.621538 404.913231 708.923077 394.948923 708.923077 384S702.621538 363.086769 692.696615 358.16369199999997zM945.230769 68.92307700000003l-118.153846 0 0 118.153846 118.153846 0L945.230769 68.92307700000003zM945.230769 305.230769l-118.153846 0 0 118.153846 118.153846 0L945.230769 305.230769zM945.230769 541.538462l-118.153846 0L827.076923 659.692308l118.153846 0L945.230769 541.538462z"  horiz-adv-x="1024" />

    
    <glyph glyph-name="cp" unicode="&#58912;" d="M530.944-128V415.744L1024 633.270857v-518.144L530.944-128zM3.218286 669.184L510.171429 896l513.170285-226.304-512.658285-225.572571L3.218286 669.184zM494.665143-128L0 115.12685699999997V633.270857l494.665143-217.526857V-128zM151.771429 431.616l-1.024-72.557714L341.430857 266.97142899999994l1.097143 72.557714-190.756571 92.086857z"  horiz-adv-x="1024" />

    
    <glyph glyph-name="liebiao" unicode="&#59006;" d="M439.1822222222222 347.5911111111111H38.68444444444441c-21.845333333333333 0-36.40888888888889-14.563555555555556-36.40888888888889-36.40888888888889v-400.49777777777774c0-21.845333333333333 14.563555555555556-36.40888888888889 36.40888888888889-36.40888888888889h400.49777777777774c21.845333333333333 0 36.40888888888889 14.563555555555556 36.40888888888889 36.40888888888889V311.1822222222222c0 21.845333333333333-14.563555555555556 36.40888888888889-36.40888888888889 36.40888888888889z m0 546.1333333333333H38.68444444444441c-21.845333333333333 0-36.40888888888889-14.563555555555556-36.40888888888889-36.40888888888889v-400.49777777777774c0-21.845333333333333 14.563555555555556-36.40888888888889 36.40888888888889-36.40888888888889h400.49777777777774c21.845333333333333 0 36.40888888888889 14.563555555555556 36.40888888888889 36.40888888888889V857.3155555555556c0 21.845333333333333-14.563555555555556 36.40888888888889-36.40888888888889 36.40888888888889z m546.1333333333333 0H584.8177777777778c-21.845333333333333 0-36.40888888888889-14.563555555555556-36.40888888888889-36.40888888888889v-400.49777777777774c0-21.845333333333333 14.563555555555556-36.40888888888889 36.40888888888889-36.40888888888889h400.49777777777774c21.845333333333333 0 36.40888888888889 14.563555555555556 36.40888888888889 36.40888888888889V857.3155555555556c0 21.845333333333333-14.563555555555556 36.40888888888889-36.40888888888889 36.40888888888889z m0-546.1333333333333H584.8177777777778c-21.845333333333333 0-36.40888888888889-14.563555555555556-36.40888888888889-36.40888888888889v-400.49777777777774c0-21.845333333333333 14.563555555555556-36.40888888888889 36.40888888888889-36.40888888888889h400.49777777777774c21.845333333333333 0 36.40888888888889 14.563555555555556 36.40888888888889 36.40888888888889V311.1822222222222c0 21.845333333333333-14.563555555555556 36.40888888888889-36.40888888888889 36.40888888888889z"  horiz-adv-x="1024" />

    
    <glyph glyph-name="ld" unicode="&#59004;" d="M896.4778666666666 862.5385244444444v-136.89742222222222c0-21.55406222222222-17.476266666666668-39.03032888888889-39.03032888888889-39.03032888888889h-117.09098666666667c-21.55406222222222 0-39.03032888888889 17.476266666666668-39.03032888888889 39.03032888888889v39.03032888888889h-175.9277511111111c-21.55406222222222 0-39.03032888888889-17.476266666666668-39.03032888888889-39.03032888888889v-313.40771555555557h214.95808v39.03032888888889c0 21.55406222222222 17.476266666666668 39.03032888888889 39.03032888888889 39.03032888888889h117.09098666666667c21.55406222222222 0 39.03032888888889-17.476266666666668 39.03032888888889-39.03032888888889v-136.89742222222222c0-21.55406222222222-17.476266666666668-39.03032888888889-39.03032888888889-39.03032888888889h-117.09098666666667c-21.55406222222222 0-39.03032888888889 17.476266666666668-39.03032888888889 39.03032888888889V353.39662222222216h-214.95808v-293.60128c0-21.55406222222222 17.476266666666668-39.03032888888889 39.03032888888889-39.03032888888889h175.9277511111111v39.03032888888889c0 21.55406222222222 17.476266666666668 39.03032888888889 39.03032888888889 39.03032888888889h117.09098666666667c21.55406222222222 0 39.03032888888889-17.476266666666668 39.03032888888889-39.03032888888889V-77.68462222222229c0-21.55406222222222-17.476266666666668-39.03032888888889-39.03032888888889-39.03032888888889h-117.09098666666667c-21.55406222222222 0-39.03032888888889 17.476266666666668-39.03032888888889 39.03032888888889v39.03032888888889h-195.73418666666666c-43.10812444444444 0-78.06065777777778 34.952533333333335-78.06065777777778 78.06065777777778V353.39662222222216h-214.95808v-39.03032888888889c0-21.55406222222222-17.476266666666668-39.03032888888889-39.03032888888889-39.03032888888889h-117.09098666666667c-21.55406222222222 0-39.03032888888889 17.476266666666668-39.03032888888889 39.03032888888889v136.89742222222222c0 21.55406222222222 17.476266666666668 39.03032888888889 39.03032888888889 39.03032888888889h117.09098666666667c21.55406222222222 0 39.03032888888889-17.476266666666668 39.03032888888889-39.03032888888889v-39.03032888888889h214.95808v333.2141511111111c0 43.10812444444444 34.952533333333335 78.06065777777778 78.06065777777778 78.06065777777778h195.73418666666666v39.03032888888889c0 21.55406222222222 17.476266666666668 39.03032888888889 39.03032888888889 39.03032888888889h117.09098666666667c21.55406222222222 0 39.03032888888889-17.476266666666668 39.03032888888889-39.03032888888889m0 0z"  horiz-adv-x="1024" />

    
    <glyph glyph-name="tp" unicode="&#58907;" d="M0 827.733333h1024v-887.466666H0V827.733333z m68.266667-819.2h887.466666V759.466667H68.266667v-750.933334zM68.266667 759.466667h887.466666v-750.933334H68.266667zM785.066667 384l-150.186667-218.453333-395.946667 423.253333-136.533333-300.373333v-245.76h819.2v68.266666zM682.666667 554.666667m-68.266667 0a68.266667 68.266667 0 1 1 136.533333 0 68.266667 68.266667 0 1 1-136.533333 0Z"  horiz-adv-x="1024" />

    
    <glyph glyph-name="gengduo1" unicode="&#58976;" d="M15.233883654321005 715.1778424098766h110.3917511111111v-110.3930456493827H15.233883654321005v110.3930456493827zM291.2139087012346 715.1778424098766H1008.7661163456789v-110.3930456493827H291.2164977777778v110.3930456493827zM15.233883654321005 439.19652282469133h110.3917511111111v-110.3930456493827H15.233883654321005v110.3930456493827zM291.2139087012346 439.19652282469133H1008.7661163456789v-110.3930456493827H291.2164977777778v110.3930456493827zM15.233883654321005 163.21520323950608h110.3917511111111v-110.3930456493827H15.233883654321005V163.21649777777782zM291.2139087012346 163.21520323950608H1008.7661163456789v-110.3930456493827H291.2164977777778V163.21649777777782z"  horiz-adv-x="1024" />

    
    <glyph glyph-name="time" unicode="&#58939;" d="M512-113.88854096c-275.09462462 0-503.22187429 228.12724968-503.22187429 503.22187429s228.12724968 503.22187429 503.22187429 503.22187429 503.22187429-228.12724968 503.22187429-503.22187429c0-53.67699992-6.70962499-114.06362484-26.83849997-161.03099977-6.70962499-13.41924998-13.41924998-20.12887497-26.83849995-13.41924998-13.41924998 6.70962499-20.12887497 13.41924998-13.41924999 26.83849996 13.41924998 46.96737493 26.83849996 100.64437486 26.83849996 147.61174979 0 254.96574964-207.9983747 456.25449935-456.25449935 456.25449935-254.96574964 0-456.25449935-207.9983747-456.25449936-456.25449935s207.9983747-456.25449935 456.25449936-456.25449935c40.25774994 0 80.51549989 6.70962499 120.77324983 13.41924998 13.41924998 0 26.83849996-6.70962499 26.83849996-13.41924998 0-13.41924998-6.70962499-26.83849996-13.41924998-26.83849996-46.96737493-13.41924998-93.93474987-20.12887497-140.9021248-20.12887498zM512 355.78520838c-6.70962499 0-13.41924998 0-20.12887497 6.70962499-13.41924998 13.41924998-13.41924998 26.83849996 0 40.25774994l234.83687467 234.83687467c13.41924998 13.41924998 26.83849996 13.41924998 40.25774994 0 13.41924998-13.41924998 13.41924998-26.83849996 0-40.25774995l-234.83687467-234.83687466c-6.70962499-6.70962499-13.41924998-6.70962499-20.12887497-6.70962499zM512 765.0723328c-13.41924998 0-20.12887497 6.70962499-20.12887497 20.12887497V859.00708266c0 13.41924998 6.70962499 20.12887497 20.12887497 20.12887498s20.12887497-6.70962499 20.12887497-20.12887498v-73.80587489c0-13.41924998-6.70962499-20.12887497-20.12887497-20.12887497zM129.55137554 369.20445836h-73.80587489c-13.41924998 0-20.12887497 6.70962499-20.12887497 20.12887497 0 13.41924998 6.70962499 20.12887497 20.12887497 20.12887497h73.80587489c13.41924998 0 20.12887497-6.70962499 20.12887496-20.12887497 0-13.41924998-13.41924998-20.12887497-20.12887496-20.12887497zM968.25449935 369.20445836h-73.80587489c-13.41924998 0-20.12887497 6.70962499-20.12887496 20.12887497 0 13.41924998 6.70962499 20.12887497 20.12887496 20.12887497h73.80587489c13.41924998 0 20.12887497-6.70962499 20.12887497-20.12887497 0-13.41924998-6.70962499-20.12887497-20.12887497-20.12887497zM223.48612541 630.8798329900001c-6.70962499 0-13.41924998 0-20.12887497 6.70962499l-46.96737494 60.38662491c-6.70962499 6.70962499-6.70962499 20.12887497 0 33.54812495 6.70962499 6.70962499 20.12887497 6.70962499 33.54812495 0l46.96737493-60.38662491c6.70962499-6.70962499 6.70962499-20.12887497 0-33.54812495-6.70962499-6.70962499-6.70962499-6.70962499-13.41924997-6.70962499zM196.64762545 33.723208829999976c-6.70962499 0-6.70962499 0-13.41924998 6.709625s-13.41924998 20.12887497 0 33.54812495l46.96737493 60.38662491c6.70962499 6.70962499 20.12887497 13.41924998 33.54812495 0 6.70962499-6.70962499 13.41924998-20.12887497 0-33.54812495l-46.96737493-60.38662491c-6.70962499-6.70962499-13.41924998-6.70962499-20.12887497-6.709625zM438.1941251 389.33333333a73.8058749 73.8058749 0 1 1 147.6117498 0 73.8058749 73.8058749 0 1 1-147.6117498 0ZM773.67537463-60.21154104000004h-73.8058749v40.25774995h73.8058749v20.12887497h-73.8058749v40.25774995h46.96737495l-60.38662493 120.77324982h60.38662493l40.25774994-80.51549988c6.70962499-13.41924998 6.70962499-20.12887497 13.41924997-26.83849996 0 6.70962499 6.70962499 20.12887497 13.41924998 26.83849996l40.25774994 80.51549988h60.38662493l-67.09624992-114.06362483h53.67699993v-40.25774995h-73.8058749v-20.12887498h73.8058749v-40.25774993h-73.8058749v-53.67699993h-53.67699992v46.96737493z"  horiz-adv-x="1024" />

    
    <glyph glyph-name="wl" unicode="&#59523;" d="M864.98397103 529.18620917H729.77931374V710.66897062c0 19.96310377-16.33344852 36.29655229-36.29655229 36.29655229H40.14482022c-19.96310377 0-36.29655229-16.33344852-36.29655229-36.29655229v-508.15173207c0-19.96310377 16.33344852-36.29655229 36.29655229-36.29655229h36.29655228c0-79.85241505 65.33379412-145.18620917 145.18620917-145.18620917s145.18620917 65.33379412 145.18620916 145.18620917h290.37241834c0-79.85241505 65.33379412-145.18620917 145.18620916-145.18620917s145.18620917 65.33379412 145.18620917 145.18620917h36.29655228c19.96310377 0 36.29655229 16.33344852 36.29655229 36.29655229V305.05499877c0 3.62965524-0.9074138 7.25931045-2.72224143 9.98155186l-137.01948489 205.98293427c-3.62965524 5.44448285-9.07413807 8.16672426-15.42603472 8.16672427zM236.14620259 95.44240930000001c-50.8151732-9.98155189-95.27844976 34.48172468-85.29689787 85.29689787 5.44448285 28.12982803 28.12982803 51.72258701 57.16706984 57.16706987 50.8151732 9.98155189 95.27844976-34.48172468 85.29689789-85.2968979-6.35189665-29.03724183-29.03724183-51.72258701-57.16706986-57.16706984z m580.74483666 0c-50.8151732-9.98155189-95.27844976 34.48172468-85.29689789 85.29689787 5.44448285 28.12982803 28.12982803 51.72258701 57.16706986 57.16706987 50.8151732 9.98155189 95.27844976-34.48172468 85.29689788-85.2968979-6.35189665-29.03724183-29.03724183-51.72258701-57.16706985-57.16706984zM729.77931374 311.40689541999996V456.59310458h107.98224308c6.35189665 0 11.79637949-2.72224141 14.51862091-8.16672426L947.5586275 311.40689541999996H729.77931374z"  horiz-adv-x="1024" />

    
    <glyph glyph-name="jifen" unicode="&#59543;" d="M179.2 713.6c-34.4-16.8-51.2-35.2-51.2-55.2v-55.2c0-20 16.8-38.4 51.2-55.2 34.4-16.8 80.8-30.4 140-40 59.2-9.6 123.2-14.4 192.8-14.4s133.6 4.8 192.8 14.4c59.2 9.6 105.6 23.2 140 40 34.4 16.8 51.2 35.2 51.2 55.2v55.2c0 20-16.8 38.4-51.2 55.2-34.4 16.8-80.8 30.4-140 40C645.6 763.2 581.6 768 512 768s-133.6-4.8-192.8-14.4c-58.4-10.4-105.6-23.2-140-40M128 344v-69.6c0-20 16.8-38.4 51.2-55.2s80.8-30.4 140-40c59.2-9.6 123.2-14.4 192.8-14.4s133.6 4.8 192.8 14.4c59.2 9.6 105.6 23.2 140 40 34.4 16.8 51.2 35.2 51.2 55.2v72.8c-40-24-93.6-42.4-162.4-54.4-68.8-12.8-142.4-18.4-221.6-18.4s-152.8 5.6-221.6 18.4C221.6 304.8 168 323.2 128 347.2M128 184v-74.4c0-20 16.8-38.4 51.2-55.2s80.8-30.4 140-40c59.2-9.6 123.2-14.4 192.8-14.4s133.6 4.8 192.8 14.4c59.2 9.6 105.6 23.2 140 40 34.4 16.8 51.2 35.2 51.2 55.2v72.8c-40-24-93.6-42.4-162.4-54.4-68.8-12-142.4-18.4-221.6-18.4s-152.8 6.4-221.6 18.4C221.6 140 168 158.4 128 182.4M128 512v-72.8c0-20 16.8-38.4 51.2-55.2s80.8-30.4 140-40c59.2-9.6 123.2-14.4 192.8-14.4s133.6 4.8 192.8 14.4c59.2 9.6 105.6 23.2 140 40 34.4 16.8 51.2 35.2 51.2 55.2V512c-40-24-93.6-42.4-162.4-54.4-68.8-12-142.4-18.4-221.6-18.4s-152.8 6.4-221.6 18.4C221.6 469.6 168 488 128 512"  horiz-adv-x="1024" />

    
    <glyph glyph-name="shouce" unicode="&#59544;" d="M1021.8481713 814.2068094v-934.72164737H173.16340286c-94.53434842 0-171.01157412 76.47722567-171.01157416 171.01157416V728.16993047C2.1518287 822.7042789 78.62905443 899.18150463 173.16340286 899.18150463H851.89878086v-679.79756174H174.22558655c-47.79826608 0-87.09906258-39.30079652-87.09906262-87.09906257v-80.72596044c0-47.79826608 39.30079652-87.09906258 87.09906262-87.09906262H936.87347607V814.2068094h84.97469523zM851.89878086 134.40924771000005H172.10121914v-84.97469524h679.79756172v84.97469524z"  horiz-adv-x="1024" />

    
    <glyph glyph-name="xz" unicode="&#59575;" d="M256-128h768V640l-768-768z m493.6 108.8L704-64l-45.6 45.6L576 64l45.6 45.6L704 26.399999999999977l210.4 210.4 45.6-45.6-210.4-210.4z"  horiz-adv-x="1024" />

    
    <glyph glyph-name="lingdang" unicode="&#59584;" d="M512-64c49.6 0 88 38.4 88 88H424c0-49.6 38.4-88 88-88z m288.8 286.4V451.2c0 137.6-97.6 252.8-224.8 283.2v28.8c0 32-17.6 60.8-48 67.2-44 10.4-80-23.2-80-66.4v-30.4C320.8 704 223.2 588.8 223.2 451.2v-228.8L136 132.8v-44.8h752v44.8l-87.2 89.6z"  horiz-adv-x="1024" />

    
    <glyph glyph-name="xihuan" unicode="&#59587;" d="M512 0l-60.8 55.2C236 250.4 93.6 380 93.6 537.6 93.6 666.4 194.4 768 324 768c72.8 0 142.4-33.6 188-87.2C557.6 733.6 627.2 768 700 768c128.8 0 230.4-100.8 230.4-230.4 0-157.6-142.4-287.2-357.6-482.4L512 0z"  horiz-adv-x="1024" />

    
    <glyph glyph-name="sgd" unicode="&#59591;" d="M276.37913415 895.98587205v-549.78202034h157.08057723v-471.24173172l363.24883485 628.32230896H592.50379583L796.70854623 895.98587205H276.37913415z"  horiz-adv-x="1024" />

    
    <glyph glyph-name="rili" unicode="&#59599;" d="M864 704H704v64h-64v-64H384v64h-64v-64H160c-17.6 0-32-14.4-32-32v-640c0-17.6 14.4-32 32-32h704c17.6 0 32 14.4 32 32V672c0 17.6-14.4 32-32 32z m-32-640H192V512h640v-448zM384 384H256v64h128v-64z m192 0H448v64h128v-64z m192 0H640v64h128v-64zM384 256H256v64h128v-64z m192 0H448v64h128v-64z m192 0H640v64h128v-64zM384 128H256v64h128v-64z m192 0H448v64h128v-64z"  horiz-adv-x="1024" />

    
    <glyph glyph-name="dingwei" unicode="&#59648;" d="M960 416h-65.6C879.2 602.4 730.4 751.2 544 766.4V832h-64v-65.6C293.6 751.2 144.8 602.4 129.6 416H64v-64h65.6c15.2-186.4 164-335.2 350.4-350.4v-65.6h64v65.6c186.4 15.2 335.2 164 350.4 350.4h65.6v64z m-448-352c-176.8 0-320 143.2-320 320s143.2 320 320 320 320-143.2 320-320-143.2-320-320-320z m128 320c0-70.4-57.6-128-128-128s-128 57.6-128 128 57.6 128 128 128 128-57.6 128-128z"  horiz-adv-x="1024" />

    
    <glyph glyph-name="leida" unicode="&#59649;" d="M512 884.21186126C235.99024085 884.21186126 11.78813874 660.00975915 11.78813874 384s224.20210211-500.21186126 500.21186126-500.21186126 500.21186126 224.20210211 500.21186126 500.21186126S788.00975915 884.21186126 512 884.21186126z m-17.86470933-928.07164972c-222.41563117 8.93235466-401.06272447 188.47268344-409.99507913 409.99507913h142.91767465C235.99024085 222.32438056 351.21761602 107.99024084999996 494.13529067 99.05788618999998v-142.91767465z m0 214.37651196c-103.61531412 8.93235466-186.68621249 92.00325305-195.61856717 195.61856717h144.70414557c6.25264826-25.01059306 25.90382852-44.66177332 50.9144216-50.9144216v-144.70414557z m0 282.26240743c-25.01059306-6.25264826-43.76853786-25.90382852-50.9144216-50.9144216H298.5167235c8.93235466 103.61531412 92.00325305 186.68621249 195.61856717 195.61856717v-144.70414557z m0 216.16298288C350.32438056 660.00975915 235.99024085 544.7823839800001 227.05788619 401.86470933h-142.91767465c8.93235466 222.41563117 188.47268344 401.06272447 409.99507913 409.99507913v-142.91767465z m35.72941866-71.45883731c19.65118027-1.78647094 38.40912506-6.25264826 55.38059893-12.50529652 5.35941281 25.01059306 19.65118027 46.44824427 39.30236053 61.63324717-29.4767704 12.50529654-61.6332472 20.54441573-94.68295946 23.22412214V812.7530239499999c102.72207866-4.46617733 196.51180264-44.66177332 267.97063996-108.97472693L746.92092769 651.97063996c9.82559014-6.25264826 19.65118027-14.29176747 26.79706401-24.1173576l50.02118612 50.02118613c68.77913093-72.3520728 112.54766879-169.71473864 117.01384613-276.00975916H797.83534929c-1.78647094 33.04971226-9.82559014 65.20618905-22.33088666 94.68295946-15.18500293-19.65118027-36.62265413-33.94294773-61.63324718-39.30236053 6.25264826-17.86470933 10.71882561-35.72941866 12.50529651-55.38059893H581.67236637c-2.67970639 8.93235466-6.25264826 16.07823839-11.61206105 23.22412213l52.70089253 52.70089252c-8.93235466 7.14588372-16.97147386 16.97147386-24.1173576 26.797064l-56.2738344-56.27383439c-4.46617733 1.78647094-8.03911919 3.57294188-13.39853199 4.46617734V597.4832765z m0-283.15564287c25.01059306 6.25264826 45.55500879 25.90382852 51.80765704 51.80765704h143.81091013c-8.93235466-103.61531412-92.00325305-186.68621249-195.61856717-195.61856717V314.32763363000004z m0-358.18742209v142.91767465C673.67561944 107.99024084999996 788.00975915 223.21761602000004 796.94211381 366.13529067h142.91767465c-8.93235466-222.41563117-187.57944798-401.06272447-409.99507913-409.99507913z m159.88914852 534.15480897c-39.30236052 0-71.45883732 32.1564768-71.45883734 71.45883734s32.1564768 71.45883732 71.45883734 71.45883731 71.45883732-32.1564768 71.45883731-71.45883731-32.1564768-71.45883732-71.45883731-71.45883734z"  horiz-adv-x="1024" />

    
    <glyph glyph-name="hd" unicode="&#59339;" d="M540.573023 395.000614L540.573023 613.58424C532.572577 614.841453 524.915006 627.413583 516.514538 627.413583L511.71427 627.413583C501.88515 627.413583 492.798929 614.327139 483.426977 612.898488L483.426977 395.000614 26.258608 395.000614 26.258608 569.296054C26.258608 601.354986 51.860037 627.413583 83.404654 627.413583L188.153357 627.413583C153.579999 644.385959 134.77895 667.301524 125.121268 690.04565 97.176851 755.820749 139.464925 834.910877 193.410793 875.941738 217.240694 894.11418 248.328143 898.800156 285.587365 889.999665 364.620347 871.255762 463.654445 790.851275 514.114404 727.933478 564.574362 790.851275 663.60846 871.255762 742.641442 889.999665 779.900664 898.74301 810.988113 894.057034 834.818014 875.941738 888.763882 834.910877 931.051956 755.820749 903.107539 690.04565 893.449858 667.244377 874.47737 644.385959 839.78972 627.413583L940.595346 627.413583C972.139963 627.413583 997.741392 601.354986 997.741392 569.296054L997.741392 395.000614 540.573023 395.000614ZM272.672359 833.42508C264.786205 835.253753 257.700095 836.225236 251.299738 836.225236 241.527764 836.225236 233.584463 833.939394 227.641275 829.424856 191.524973 801.937608 162.09476 749.59183 177.581338 713.075506 186.267537 692.674368 233.698756 630.7852 484.055583 671.587477 453.539595 720.3902 349.419499 815.195491 272.672359 833.42508ZM850.647469 713.075506C866.134048 749.59183 836.76098 801.937608 800.587533 829.424856 790.872705 836.796696 775.614711 838.111055 755.613595 833.42508 678.409286 815.138345 573.71773 719.53301 543.773202 670.9017240000001 794.187176 630.042301 841.904124 692.560076 850.647469 713.075506ZM483.426977-127.88570800000002L140.5507-127.88570800000002C109.006083-127.88570800000002 83.404654-101.88425700000005 83.404654-69.82532500000002L83.404654 336.88308500000005 483.426977 336.88308500000005 483.426977-127.88570800000002ZM940.595346-69.82532500000002C940.595346-101.88425700000005 914.993917-127.88570800000002 883.4493-127.88570800000002L540.573023-127.88570800000002 540.573023 336.88308500000005 940.595346 336.88308500000005 940.595346-69.82532500000002Z"  horiz-adv-x="1024" />

    
    <glyph glyph-name="SDK" unicode="&#58991;" d="M85.108377 442.939367l88.672552 72.700789 338.959945-180.034353 342.28876 176.326915 83.861989-68.993351-426.150749-220.366943L85.108377 442.939367z m0 189.404768L512.740874 834.950576l426.150749-202.606441-426.150749-220.366944L85.108377 632.344135z m427.632497 100.718912l-222.801389-97.365538 222.801389-110.685915 227.237421 107.726514-227.237421 100.324939z m0-586.851778l342.27955 176.321798 83.871199-68.993351-426.150749-220.36285L85.108377 253.538693l88.681761 72.700789 338.950736-180.028213z"  horiz-adv-x="1024" />

    
    <glyph glyph-name="chain" unicode="&#58948;" d="M897.783513576995 152.08166594058093c0 16.06442116143641-6.172536364373706 30.902248897992923-17.330582744365604 42.020727119935515l-128.59450452566497 128.59450452566497A59.984390655765736 59.984390655765736 0 0 1 709.8376991870289 340.02748033054695c-17.9240953777809 0-32.12884232287282-6.8056171558383065-44.513482127744616-19.783769594125403 20.416850385590006-20.416850385590006 44.513482127744616-37.70786497190631 44.513482127744616-69.24319466136383a59.351309864301136 59.351309864301136 0 0 0-59.351309864301136-59.351309864301136c-31.535329689457523 0-48.826344275773835 24.096631742154614-69.24319466136383 44.513482127744616-12.978153520212016-12.384639804871801-20.416850385590006-26.589386749963715-20.416850385590006-45.14656291920922 0-15.470908528021111 6.172536364373706-30.902248897992923 17.330582744365604-42.020727119935515l127.36791001886016-127.96142373420038c11.118478221942603-11.118478221942603 26.589386749963715-16.69750195290101 42.020727119935515-16.69750195290101s30.902248897992923 5.579022649033493 42.020727119935515 16.06442116143641l90.88663955375864 90.25355768036913A58.55995860448916 58.55995860448916 0 0 1 897.783513576995 152.08166594058093zM463.1736557242262 587.9576842943543a59.746984953244656 59.746984953244656 0 0 1-17.330582744365604 42.020727119935515L318.4751629610005 757.93983514849c-11.118478221942603 11.118478221942603-26.589386749963715 17.330582744365604-42.020727119935515 17.330582744365604s-30.902248897992923-6.172536364373706-42.020727119935515-16.69750195290101L143.54706916737075 668.3193582595856a58.718229072836536 58.718229072836536 0 0 1 0-83.44794160645573l128.59450452566497-128.59450452566497A59.351309864301136 59.351309864301136 0 0 1 314.1623008129711 439.5794101745639c17.9240953777809 0 32.12884232287282 6.172536364373706 44.513482127744616 19.150689884585724C338.2589325551258 479.1469504447397 314.1623008129711 496.43796503105597 314.1623008129711 527.9732947205135A59.351309864301136 59.351309864301136 0 0 0 373.51361067727237 587.3246035028897c31.535329689457523 0 48.826344275773835-24.096631742154614 69.24319466136383-44.513482127744616 12.978153520212016 12.384639804871801 20.416850385590006 26.589386749963715 20.416850385590006 45.14656291920922zM1016.4861322236723 152.08166594058093a176.7877680099742 176.7877680099742 0 0 0-52.545692708462816-125.50823580251567l-90.88663847183375-90.25355876229405a176.70863277580054 176.70863277580054 0 0 0-125.50823688444058-51.31909928358292 175.67987689539237 175.67987689539237 0 0 0-126.10174951785586 52.545692708462816l-127.36791001886016 127.96142373420038a176.70863277580054 176.70863277580054 0 0 0-51.31909928358292 125.50823688444058c0 48.826344275773835 19.783769594125403 95.19950061986296 54.40536692480732 129.22758531712955l-54.40536692480732 54.40536692480732A179.59706287255315 179.59706287255315 0 0 0 314.1623008129711 320.2437107364216a178.6078751501943 178.6078751501943 0 0 0-126.10174951785586 51.95217899312261l-128.59450452566497 128.59450452566497A176.23382245268328 176.23382245268328 0 0 0 7.5138677763278 626.8921437730655c0 47.00623713555372 19.15068880266081 92.74631377010313 52.545692708462816 125.50823580251567l90.88663847183375 90.25355876229405A176.70863277580054 176.70863277580054 0 0 0 276.4544358410649 893.9730376214579a175.67987689539237 175.67987689539237 0 0 0 126.10174951785586-52.545692708462816l127.36791001886016-127.96142373420038a176.70863277580054 176.70863277580054 0 0 0 51.31909928358292-125.50823688444058c0-48.826344275773835-19.783769594125403-95.19950061986296-54.40536692480732-129.22758423520466l54.40536692480732-54.40536800673224A179.59706287255315 179.59706287255315 0 0 0 709.8376991870289 458.7301000591497c47.00623713555372 0 92.74631377010313-18.55717616924551 126.10174951785586-51.95218007504753l128.59450452566497-128.59450452566497A176.23382245268328 176.23382245268328 0 0 0 1016.4861322236723 152.08166594058093z"  horiz-adv-x="1024" />

    
    <glyph glyph-name="mars" unicode="&#59098;" d="M975.5423636202338 889.6825790185602c23.050697058928574 0 42.14021539832647-19.08951718712639 42.14021539832647-42.14021539832647v-273.9113960561718c0-11.841399894332685-9.228707228694798-21.070107123027483-21.070107123027483-21.07010827529898h-42.14021539832647a20.817266492041366 20.817266492041366 0 0 0-21.070107123027483 21.07010827529898V746.153006724627l-251.53494260032545-252.16704533006217A375.342893825124 375.342893825124 0 0 0 764.8412889331444 257.6214958306373c0-209.39472835427043-169.8672067738533-379.2619339758522-379.2619339758522-379.2619339758522s-379.2619339758522 169.8672067738533-379.2619339758522 379.2619339758522 169.8672067738533 379.2619339758522 379.2619339758522 379.2619339758522a375.0479123207924 375.0479123207924 0 0 0 236.36446556392733-82.97408331156247l251.53494260032545 251.53494260032545H701.630967564062a20.817266492041366 20.817266492041366 0 0 0-21.07010827529898 21.070107123027483v42.14021539832647c0 11.841399894332685 9.228707228694798 21.070107123027483 21.07010827529898 21.070107123027483H975.5423636202338zM385.579354957292-37.40214937417886c162.6190894810596 0 294.9815043314707 132.3624148504112 294.9815043314707 294.9815043314707s-132.3624148504112 294.9815043314707-294.9815043314707 294.9815043314707-294.9815043314707-132.3624148504112-294.9815043314707-294.9815043314707 132.3624148504112-294.9815043314707 294.9815043314707-294.9815043314707z"  horiz-adv-x="1024" />

    
    <glyph glyph-name="mkf" unicode="&#59106;" d="M862.5436728210086 467.11402890168455v-77.89859384188863c0-180.14049845905865-136.32253948956006-328.61521891597937-311.5943753675545-348.0898681752165V-39.22683266812123h155.79718768377725c21.30526500093131 0 38.949297453454236-17.644031387503077 38.94929638843439-38.94929638843439s-17.644031387503077-38.949297453454236-38.94929638843439-38.949297453454236H317.25351486276844c-21.30526500093131 0-38.949297453454236 17.644031387503077-38.94929638843439 38.949297453454236s17.644031387503077 38.949297453454236 38.94929638843439 38.94929638843439h155.79718768377725v80.3523995527007c-175.27183694301428 19.474648194217195-311.5943764325744 167.949368651138-311.5943753675545 348.0898681752165v77.89859384188863c0 21.30526500093131 17.644031387503077 38.949297453454236 38.94929638843439 38.94929638843439s38.949297453454236-17.644031387503077 38.949297453454236-38.94929638843439v-77.89859384188863c0-150.30533726363493 122.33974171548522-272.6450789791201 272.6450789791201-272.6450789791201s272.6450789791201 122.33974171548522 272.6450789791201 272.6450789791201v77.89859384188863c0 21.30526500093131 17.644031387503077 38.949297453454236 38.949297453454236 38.94929638843439s38.949297453454236-17.644031387503077 38.94929638843439-38.94929638843439z m-155.79718768377725 233.69578152566586v-311.5943753675545c0-107.11056719823426-87.63591793899722-194.7464851372315-194.7464851372315-194.7464851372315s-194.7464851372315 87.63591793899722-194.7464851372315 194.7464851372315V700.8098104273505c0 107.11056719823426 87.63591793899722 194.7464851372315 194.7464851372315 194.7464851372315s194.7464851372315-87.63591793899722 194.7464851372315-194.7464851372315z"  horiz-adv-x="1024" />

    
    <glyph glyph-name="music" unicode="&#59109;" d="M968.5555852803727 833.2525919412863V151.63989449348617c0-85.8053011322831-128.41583219916558-116.84789129534286-194.7464851372315-116.84789129534286s-194.7464851372315 31.04259016305975-194.7464851372315 116.84789129534286 128.41583219916558 116.84789129534286 194.7464851372315 116.84789129534286c40.15672535607038 0 80.3523995527007-7.283518386296517 116.84789129534286-23.720121871183448v326.82355094982523l-467.3915641163517-144.22924677995456v-431.4803124372475c0-85.8053011322831-128.41583219916558-116.84789129534286-194.7464851372315-116.84789129534286s-194.7464851372315 31.04259016305975-194.7464851372315 116.84789129534286 128.41583219916558 116.84789129534286 194.7464851372315 116.84789129534286c40.15672535607038 0 80.3523995527007-7.283518386296517 116.84789129534286-23.720121871183448V677.494353098069c0 25.550738677897566 17.059792388984892 48.06343264646487 41.36415325868653 55.97013993685935l506.34086050478595 155.79718768377725c5.491850420142345 1.830616806714115 10.94475199972475 2.4538057108120808 17.059792388984892 2.4538057108120808a58.42394564767143 58.42394564767143 0 0 0 58.42394564767143-58.42394564767143z"  horiz-adv-x="1024" />

    
    <glyph glyph-name="paperclip" unicode="&#59115;" d="M947.2662855607757 66.42804840747795c0-103.05581424423279-78.5811153314991-181.63692957573187-181.63692957573187-181.63692841989413-58.12212614998236 0-114.25753250539682 25.10875913481481-155.2177810105115 66.06900648409172L97.20376614377437 463.3916049382716C50.32562955287483 510.94607189333334 22.553820259329882 575.6624176491005 22.553820259329882 642.3654843552733c0 140.04262200437387 110.28409291626099 251.6371043510405 250.3267149206349 251.6371043510405 67.37939591449735 0 132.09574167026452-27.09547892938271 180.32654014532628-74.64994588444443l399.5843353916049-400.26066575576715a21.21985982984127 21.21985982984127 0 0 0 6.59421960578483-14.541099939894178c0-13.86476957573192-36.98680776014109-50.85157733587301-50.85157733587301-50.851576180035266a21.5157542919224 21.5157542919224 0 0 0-15.175159006137562 6.59421960578483L393.0982282249031 761.1882453739682C361.39525064014117 792.2148937504056 318.4482823404587 812.0398227098412 273.55686554412716 812.0398227098412c-93.7985444797178 0-166.4617705695943-75.96033531485008-166.4617705695943-169.0825494304056 0-44.891416796331555 18.51453952902998-87.8383850960141 50.21751826962962-119.54136268077599l512.5314784665961-513.2078099865961c25.10875913481481-25.10875913481481 60.10884594455025-41.59430757135802 95.78526427428571-41.59430641552028 56.135406355414446 0 97.72971392677249 41.59430757135802 97.72971392677249 97.72971277093471 0 36.31047739597883-16.52781973446208 70.67650629530864-41.59430757135802 95.78526543012345l-383.732846021305 383.732846021305a59.00980953622573 59.00980953622573 0 0 1-39.64985791887125 15.851489370299822c-25.10875913481481 0-44.25735773008819-18.51453952902998-44.25735773008819-44.25735773008819 0-14.541098784056436 6.59421960578483-28.405868359788357 16.52781973446208-38.97352755470899l270.7857029463139-270.7857029463139a21.21985982984127 21.21985982984127 0 0 0 6.59421960578483-14.541099939894178c0-13.86476957573192-37.663138124303345-51.52790654419751-51.527907700035264-51.52790654419751a21.388942709841267 21.388942709841267 0 0 0-14.541098784056436 6.59421960578483L311.17773352634936 419.0074356261023a139.0703971781305 139.0703971781305 0 0 0-41.59430757135802 98.40604429093472A127.99549049904759 127.99549049904759 0 0 0 399.0583887644446 646.8461714285713c36.98680776014109 0 72.66322608987655-15.175159006137562 98.40604313509698-41.59430757135802l383.7328471771428-383.732846021305c41.59430757135802-40.96024734927689 66.06900648409172-97.09565370469136 66.06900648409172-155.2177810105115z"  horiz-adv-x="1024" />

    
    <glyph glyph-name="off" unicode="&#59131;" d="M980.1129205333334 347.63174603174605c0-257.8139424-210.3003424-468.11428586666665-468.11428586666665-468.11428586666665S43.8843488 89.81780363174607 43.8843488 347.63174603174605c0 148.1191616 68.26666666666667 284.65249493333334 187.12868586666667 373.6332192a77.19984746666667 77.19984746666667 0 0 0 109.1096384-15.252724266666666 77.824 77.824 0 0 0-15.252724266666666-109.10963733333332C245.6416064 537.1790217650794 199.9224437333333 446.3648510984127 199.9224437333333 347.59273696507944c0-171.87596159999998 140.20022826666667-312.07619093333335 312.07619093333335-312.07619093333335s312.07619093333335 140.20022826666667 312.07619093333335 312.07619093333335c0 98.73310506666667-45.7191616 189.54727573333332-124.94750506666666 249.30986666666666a77.824 77.824 0 0 0-15.252724266666666 109.10963733333332 77.27786666666665 77.27786666666665 0 0 0 109.1096384 15.252724266666666A463.3161141333333 463.3161141333333 0 0 0 980.1129205333334 347.63174603174605zM590.0176821333333 815.7460318984126v-390.0952384c0-42.6764192-35.342628266666665-78.01904746666668-78.01904746666668-78.01904746666668s-78.01904746666668 35.342628266666665-78.01904746666668 78.01904746666668V815.7460318984126c0 42.6764192 35.342628266666665 78.01904746666668 78.01904746666668 78.01904746666668s78.01904746666668-35.342628266666665 78.01904746666668-78.01904746666668z"  horiz-adv-x="1024" />

    
    <glyph glyph-name="venus" unicode="&#59219;" d="M841.141917 566.857613c0-169.142616-127.999817-308.552702-292.571011-326.83839v-148.552931h127.999817c10.276557 0 18.285688-8.009131 18.285688-18.285688v-36.571376c0-10.276557-8.009131-18.285688-18.285688-18.285688H548.570906v-127.999818c0-10.276557-8.009131-18.285688-18.285688-18.285688h-36.571376a18.06626 18.06626 0 0 0-18.285689 18.285688v127.999818H347.428336a18.06626 18.06626 0 0 0-18.285688 18.285688v36.571376c0 10.276557 8.009131 18.285688 18.285688 18.285688H475.428153v148.552931C302.299258 258.89005299999997 169.728019 412.599548 183.990856 593.737575 196.571409 749.165924 319.999804 876.580599 474.294441 893.732575A328.849816 328.849816 0 0 0 841.141917 566.894184zM255.999896 566.857613c0-141.128941 114.870693-255.999634 255.999634-255.999634s255.999634 114.870693 255.999634 255.999634-114.870693 255.999634-255.999634 255.999634-255.999634-114.870693-255.999634-255.999634z"  horiz-adv-x="1024" />

    
    <glyph glyph-name="jiantou" unicode="&#58881;" d="M491.61532057573174 110.8889082772439s-3.795131635252572 163.42235205381382-3.795131635252572 214.2624386615316c294.1572982359316 65.6987608249649 483.6601723036068-290.1954743548212 527.2391866169158-384.61667203365755 2.9711058161065713 715.7502942406825-527.4048304838689 682.572247041556-527.4048304838689 682.572247041556l-0.16564386695301275 203.53228057125256-475.7365245413862-360.18734679480247 479.8618955316399-355.56294744588007z"  horiz-adv-x="1024" />

    
    <glyph glyph-name="tupian" unicode="&#58886;" d="M860.5714285714284 468.8253968253968a121.75238095238095 121.75238095238095 0 1 1 0 243.46412698412698 121.75238095238095 121.75238095238095 0 0 1 0-243.46412698412698z m212.94933333333333 405.6563809523809H79.5144126984128c-39.57333333333333 0-71.04-32.204190476190476-71.04-71.77752380952381v-830.0363174603174c0-39.57231746031746 31.466666666666665-71.77752380952381 71.04-71.77752380952381h994.0063492063492c39.57231746031746 0 71.04 32.20520634920635 71.04 71.77752380952381V802.704253968254c0 39.57333333333333-31.46768253968254 71.77752380952381-71.04 71.77752380952381z m-261.3638095238095-501.2723809523809a43.51695238095238 43.51695238095238 0 0 1-32.46526984126984 15.73384126984127c-12.915809523809523 0-22.018031746031745-6.067809523809523-32.46425396825397-14.433523809523809l-47.41790476190476-40.09346031746031c-9.882412698412697-7.108063492063492-17.771682539682537-11.919238095238095-29.12711111111111-11.919238095238095a41.95657142857143 41.95657142857143 0 0 0-27.91415873015873 10.402539682539683 343.4565079365079 343.4565079365079 0 0 0-10.922666666666666 10.402539682539683L495.4422857142858 490.84444444444443a55.91365079365079 55.91365079365079 0 0 1-42.346666666666664 19.072c-16.99047619047619 0-32.72431746031746-8.409396825396826-42.60673015873016-19.808507936507933L89.6132063492064 103.21980952380954V763.6520634920635c2.5142857142857142 17.251555555555555 15.951238095238095 29.690920634920634 33.20177777777778 29.690920634920634h907.1014603174602c17.510603174603173 0 31.685079365079364-12.959492063492062 32.72431746031746-30.42742857142857l0.7375238095238095-660.2148571428571L812.0685714285713 373.2093968253969z"  horiz-adv-x="1152" />

    
    <glyph glyph-name="shipin1" unicode="&#58900;" d="M616.533333 778.666667c-78.933333 0-140.8-64-140.8-142.933334s64-142.933333 140.8-142.933333c76.8 0 140.8 64 140.8 142.933333s-64 142.933333-140.8 142.933334z m256-142.933334c0 142.933333-115.2 260.266667-256 260.266667-134.4 0-243.2-102.4-256-234.666667-32 49.066667-87.466667 83.2-151.466666 83.2-102.4 0-183.466667-83.2-183.466667-183.466666 0-64 32-119.466667 78.933333-151.466667h-2.133333C44.8 407.466667 0 362.66666699999996 0 305.06666700000005v-330.666667C0-81.06666700000005 44.8-128 102.4-128h642.133333c55.466667 0 102.4 46.933333 102.4 102.4V305.06666700000005c0 57.6-44.8 102.4-102.4 102.4h-4.266666c78.933333 44.8 132.266667 130.133333 132.266666 228.266666zM309.333333 407.466667c38.4 25.6 66.133333 66.133333 76.8 113.066666 23.466667-49.066667 61.866667-87.466667 108.8-113.066666h-185.6z m307.2 46.933333c-98.133333 0-179.2 81.066667-179.2 181.333333s81.066667 181.333333 179.2 181.333334c98.133333 0 179.2-81.066667 179.2-181.333334s-81.066667-181.333333-179.2-181.333333z m243.2-253.866667v-140.8l164.266667-136.533333V347.733333l-164.266667-147.2z"  horiz-adv-x="1024" />

    
    <glyph glyph-name="paihang" unicode="&#58915;" d="M1016.8682666666666-33.007390476190494H10.560000000000002v-85.328h1006.4074666666664l-0.0992 85.328zM195.57866666666666 308.53394285714285h-121.34400000000001v-256.1802666666667h121.7504l-0.4064 256.1802666666667zM428.25600000000003 681.0438095238096l-63.52106666666667 28.872533333333333-267.85386666666665-303.1381333333333 63.733333333333334-28.965333333333334L428.25600000000003 681.0438095238096z m219.49973333333332-159.77066666666667l37.1072 50.3264-313.89226666666667 154.77013333333335-37.232-50.496 314.01706666666666-154.60053333333332z m230.1792 286.14293333333336l-49.824 18.733866666666664-230.90666666666667-281.1018666666667 49.98826666666666-18.79893333333333 230.7424 281.1669333333333zM438.91093333333333 478.9638095238095H317.5690666666667v-426.6090666666667H439.31733333333335l-0.4064 426.6090666666667z m243.984-84.46506666666667h-121.34400000000001v-342.1450666666667h121.74826666666667l-0.40426666666666666 342.1450666666667z m243.33439999999996 170.752H804.8864000000001v-512.8970666666667h121.7472l-0.40426666666666666 512.8970666666667zM739.0730666666665 858.6790095238094l190.03733333333332-112.92693333333334-2.4448 148.13119999999998-187.59253333333334-35.20426666666666z"  horiz-adv-x="1024" />

    
    <glyph glyph-name="qihuo" unicode="&#58969;" d="M4.800058-65.61164699999995h1103.777711v-62.388353H4.800058zM0 220.13444900000002l138.370668 86.549886 256.747296-125.979821 281.938299 412.755387 287.941472-214.749888 138.767572 6.003174v-38.450078l-155.573977-7.193886-260.331836 192.002326L408.315023 125.59686999999997 141.967611 257.530251 0 171.15401099999997z m972.650541 217.677055l64.335663 2.827942V655.637399a34.009714 34.009714 0 0 1-33.947698 34.009714h-100.007413a34.009714 34.009714 0 0 1-34.009714-34.009714v-140.578447z m-39.070241-160.634503l-64.496905 47.554064v-332.754418h167.902809v289.988009zM664.901077 667.3460680000001l100.937657-75.287734V861.990286A34.009714 34.009714 0 0 1 731.829019 896h-99.945396a34.009714 34.009714 0 0 1-34.009715-34.009714v-292.716724z m27.894911-212.678545l-94.92208-137.676087v-324.965176h167.964826V400.812607z m-276.14598-400.625008l-87.529742 43.411379v-105.427634h167.977228v178.730847z m-37.259366 195.351203l117.706852 172.305963v22.772369a34.009714 34.009714 0 0 1-34.009714 34.009715h-99.945397a34.009714 34.009714 0 0 1-34.009714-34.009715v-170.420669z m-246.737872 121.05573l94.500369-46.400562V565.651813a34.009714 34.009714 0 0 1-34.046924 34.009714H93.198028a34.009714 34.009714 0 0 1-34.046924-34.009714v-241.168813z m7.44195-179.363413l-80.943616-49.253309v-143.989341a34.257779 34.257779 0 0 1 0.508533-5.817125h166.935356a34.232973 34.232973 0 0 1 0.508533 5.817125v150.079337z"  horiz-adv-x="1108" />

    
    <glyph glyph-name="datav" unicode="&#59170;" d="M548.26464464 400.62231577a94.06426793 94.06426793 0 0 1 62.90708999 89.09045794c0 7.34474418-0.90198653 14.22560977-2.29362226 21.13224721l236.03688396 150.14203359-296.62458107-513.38473332v253.01999458z m-123.05667918 109.73305471c-1.39163574-6.88086562-2.31939292-13.7617312-2.31939292-21.132246a94.96625327 94.96625327 0 0 1 62.93286066-89.06468728v-275.05422713L168.96659265 673.38292061l256.24137281-163.02755013z m149.70392688 53.26872357a95.43013184 95.43013184 0 0 1-58.31984671 20.20449006c-22.06000317 0-42.26449321-7.34474418-58.31984547-20.20449006l-248.43275 158.44030679h614.40717873l-249.33473655-158.44030679zM932.14993992 847.87857967a94.96625327 94.96625327 0 0 1-89.06468729-62.90709002H190.56271725A94.06426793 94.06426793 0 0 1 101.47225933 847.87857967 94.2704354 94.2704354 0 0 1 7.3306783 753.73699861a94.2704354 94.2704354 0 0 1 94.14158103-94.14157982h2.75750084l335.20381506-580.87906668a93.36845007 93.36845007 0 0 1-17.446988-54.63458746 94.2704354 94.2704354 0 0 1 94.14157983-94.14158104 94.2704354 94.2704354 0 0 1 94.14158106 94.14158104c0 24.32785479-9.63836645 46.82596592-24.81750402 63.3709674l330.64234355 573.07044389c4.58724333-0.92775718 9.63836645-1.36586512 14.68948836-1.36586511a94.2704354 94.2704354 0 0 1 94.14157985 94.11580919C1024.92565586 805.17597969 984.05279957 847.87857967 932.14993992 847.87857967z"  horiz-adv-x="1024" />

    
    <glyph glyph-name="cdp" unicode="&#59171;" d="M556.96191405 213.96179459999996c-88.93134266-114.02046091-242.18961422-127.63828848-324.3351238-103.05695434-81.08378095 24.07355102-148.54973325 77.94475649-188.82619185 152.75048741-40.80732237 74.27486717-49.69353306 160.06718535-25.61998202 241.68183008 48.10093959 163.20620982 220.19335902 257.35387384 392.30886024 214.46925565 134.44720333-33.46754373 216.56963219-137.05536295 251.09890455-316.99534515l0.53086486-1.56951278c0.50778307-2.07729585 35.03705651-225.45584182 162.67534496-225.45584182a115.63613508 115.63613508 0 0 1 115.61305438 115.5899726 115.63613508 115.63613508 0 0 1-115.61305438 115.63613508c-21.97317342 0-51.26304474-4.73161794-78.47562025-24.6044148l-45.49277891 113.51267674c61.18790338-5.77026586 87.36183096-7.8475617 123.96839916-10.45572238 110.37365229-8.90929141 194.06559394-86.83096611 194.06559394-194.08867464a193.99635074 193.99635074 0 0 0-194.06559394-194.06559285c-191.45743324 0-236.97329284 270.44083764-240.11231729 291.37536314-37.13743305 194.573377-128.14607261 238.54280562-193.02694603 254.74571315-131.28509708 32.95976066-262.59327486-37.66829788-298.66897928-161.10583328-18.32636589-61.21098409-11.00966795-126.06877678 19.34193201-182.04035876 30.32851926-55.971582 81.08378095-96.77890543 142.27168434-115.08218953 72.19757132-21.46539034 217.60828012-2.63124139 275.17245559 135.48585126"  horiz-adv-x="1024" />

    
    <glyph glyph-name="works" unicode="&#59172;" d="M730.27911685 237.25159597000004a364.15423499 364.15423499 0 0 0-181.9170497-294.25796342c-173.67355824-100.14908369-395.20738736-41.43088151-494.87626765 130.77538901-84.83593168 146.54206689-53.78277933 328.11230342 64.16050848 441.09348834 0-14.32606771 2.45437329-48.36715182 12.32522027-84.86260923-66.61488054-90.78511765-77.47281306-215.61132067-17.76752531-318.74833738 80.4340673-139.60579532 260.51033735-186.98586281 401.61009915-105.56471122a295.91199772 295.91199772 0 0 1 147.90264313 236.55352437 83.52871176 83.52871176 0 0 0-32.92061078 31.85349132 84.03559269 84.03559269 0 0 0 31.07983113 114.95535479c39.96359256 23.1831528 91.26532104 9.36396604 114.95535481-30.5996265a84.03559269 84.03559269 0 0 0-44.55220353-121.19800008z m-424.71321683-27.47830449a363.8340994 363.8340994 0 0 0-168.68477902 307.54359169C136.881121 717.64172937 297.72257803 880.45735505 497.0336611 880.45735505c169.24501631 0 311.33186245-117.43640562 349.82816729-275.79681181-12.32522026 6.40271182-42.92484676 21.68918631-78.94010077 31.07982987-45.88610099 103.11033792-148.51623677 175.14084594-267.41993135 175.1408472-161.82854136 0-292.57725281-132.21599917-292.57725157-295.05830364 0-99.53549131 49.62101663-191.9479645 131.84250724-246.58443912a84.32905074 84.32905074 0 0 0 134.08345634-68.18888094 84.03559269 84.03559269 0 0 0-84.35572827-84.35572828 84.32905074 84.32905074 0 0 0-83.92887999 93.1061007z m183.17091328 389.95182763c109.29962685 55.65023652 240.3417951 52.92908401 347.26708254-9.39064359 173.67355824-100.62928709 233.88572693-321.68291282 134.19016908-493.86250578-85.34281262-147.5291512-259.49657422-211.66298214-416.89657364-164.30959219a378.29355736 378.29355736 0 0 1 67.09508391 52.795695c112.98118615-13.33898338 227.96321849 39.48338917 288.12203206 143.58081266 80.4340673 139.63247411 31.61338963 319.22854078-109.51304974 400.62301485a294.73816806 294.73816806 0 0 1-272.9155915 12.37857536 83.23525371 83.23525371 0 0 0-10.29769526-54.31633782 83.58206685 83.58206685 0 0 0-114.95535478-30.59962776 84.16898293 84.16898293 0 0 0-31.07982992 114.98203359 83.58206685 83.58206685 0 0 0 118.98372725 28.11857568z"  horiz-adv-x="1024" />

    
    <glyph glyph-name="profile" unicode="&#59173;" d="M389.34397985 840.63047686L4.63280312 174.40661113l146.67985729-0.4312625 238.03131944 413.25058152 129.12495193-221.77020157h144.92943925zM114.42706483-36.861089470000024h769.42235349l-72.88329817 127.83116555-476.95053308-0.88789301 127.34916711 222.65809457-72.45203565 125.5987491-274.4856537-475.17474827zM560.19988328 706.68553699l239.35047495-413.25058158-256.47411784-0.45663046-72.47740362-125.59874911 548.54004489 0.43126135L633.97107444 833.60344157z"  horiz-adv-x="1024" />

    
    <glyph glyph-name="bi" unicode="&#59174;" d="M501.09578173 77.03964857000005c-11.38294002-1.54254748-25.90416671-5.69146939-43.00517136-12.95208276a676.59341966 676.59341966 0 0 1-44.09559233-20.21269732l-18.13823637-9.33507431a11.27655659 11.27655659 0 0 0-4.14892191-2.60637319 193.69614332 193.69614332 0 0 1-10.90421702-6.22338289l-15.53186195-9.30847903c-5.18615239-3.13828668-10.37230478-6.2499781-16.59568761-9.86698781a161.08987198 161.08987198 0 0 1-15.5584572-10.37230478 68.82955114 68.82955114 0 0 1-10.90421828-9.8403913c-2.57977795-3.11169143-4.65423889-6.22338289-4.65423891-8.29784381 0-4.68083539 6.75529634-11.43613052 20.74460959-20.74460958 13.48399622-8.82975731 27.47330946-17.12760114 41.48921911-24.89353148 13.98931321-7.26061335 20.74460959-10.90421827 20.74460958-9.8403913 53.90938963-27.49990591 90.71777336-41.48921912 110.95706592-41.48921914 9.30847907 0 22.79247526 3.61700842 40.95730566 10.37230481a964.25200522 964.25200522 0 0 1 48.217919 20.74460957l20.21269733 9.84039128c47.68600675 22.81907052 75.18591145 40.95730565 82.97843827 53.40407138 2.04786571 4.68083539 0 10.37230478-6.75529636 17.10100592-6.75529634 6.75529634-16.59568765 14.0159097-30.58500088 21.80843526l-26.96799243 14.49463146c-3.6436049 2.07446097-9.33507431 4.68083539-16.59568765 8.29784382-60.1327725 30.05308863-100.07944292 43.03176659-121.83468771 39.9200752m-60.66468599 30.05308862c2.07446097 4.17551715 0 9.36166953-6.22338287 15.5850524-6.22338289 6.22338289-15.05314018 12.95208275-26.96799243 20.21269611-8.80316082 5.69146939-18.13823513 10.90421827-27.47330944 15.55845714-6.22338289 3.61700842-12.97867923 6.22338289-19.70737906 9.30847908a3.9361563 3.9361563 0 0 1-2.07446097 1.06382572c-58.59022376 29.5477704-99.04221242 42.49985436-121.32937075 39.38816293-24.361618-4.14892193-59.09554203-18.64355337-104.20176958-43.53708485a9.92017826 9.92017826 0 0 0-4.14892189-2.07446095c-2.07446097-0.53191349-5.71806589-2.60637445-10.90421703-5.71806463-10.90421827-6.22338289-22.28715705-12.95208275-32.65946305-19.68078384-5.31913106-3.53722149-10.63826089-6.99465724-16.06377418-10.3723048a31.40946694 31.40946694 0 0 1-10.3723048-9.84039128c-2.60637445-3.13828668-4.14892193-6.2499781-4.14892189-8.32444032 0-4.65423889 6.72869987-11.91485226 20.74460956-21.24992655 12.95208275-8.80316082 26.94139719-17.10100465 40.95730565-24.36161801 13.48399622-6.75529634 20.74460959-9.84039129 21.27652306-9.84039255 6.19678764-3.13828668 13.96271799-7.28720857 23.2977923-11.94144748s24.38821449-10.90421827 44.60091052-18.13823639c20.21269609-7.26061335 34.73392277-10.90421827 44.06899711-10.904217 9.30847907 0 22.81907052 3.6436049 40.95730686 10.37230476 16.06377417 6.22338289 31.64882785 12.97867923 47.18068854 20.21269611 12.97867923 6.22338289 20.21269609 9.84039129 20.74460957 10.37230477 47.71260199 23.35098398 75.18591145 41.48921912 82.44652477 53.93598489m575.52993801 153.45691905c0.50531701 6.22338289 1.01063526 15.05314018 0.505317 26.46267543-0.53191349 11.40953526-2.60637445 27.47330946-6.22338289 47.68600677-3.6436049 20.21269609-9.33507431 34.73392277-16.09037063 43.03176659-7.26061335 8.29784382-18.13823513 17.12760114-33.69669232 28.00522293a548.96087913 548.96087913 0 0 1-40.4253934 24.89353148l-18.16483037 9.84039127c-2.57977795 1.56914396-5.18615239 3.11169143-8.29784382 4.68083542-3.11169143 1.54254748-9.84039129 5.18615239-19.17546685 9.84039129a229.73325269 229.73325269 0 0 1-25.93076196 12.44676577c-7.26061335 3.11169143-15.02654373 5.69146939-22.81907052 8.2978438-7.23401812 2.07446097-12.4201705 2.57977795-15.0265437 1.03723048-4.65423889-2.60637445-8.29784382-11.94144873-9.8403913-27.47330944a331.64779694 331.64779694 0 0 1-3.11169144-45.63814104l1.03723048-21.27652306c0-57.02108105 5.18615239-93.82946481 15.0265437-109.89323896 4.68083539-7.26061335 14.5212267-16.59568765 29.5477704-28.00522292 14.0159097-10.37230478 28.00522293-19.68078388 43.03176783-28.5105399l20.21269608-10.9042183c4.68083539-2.57977795 10.90421827-6.22338289 19.2020621-10.87762176 8.29784382-4.65423889 20.21269609-10.90421827 36.80838375-18.13823636 16.59568765-7.26061335 28.00522293-10.90421827 34.73392277-10.90421703 14.5212267 0 20.74460959 32.15414486 18.67014861 95.39860754M31.89526723 440.49584597c6.72869987 0 17.6063229 3.11169143 32.65946184 9.84039255a600.15751211 600.15751211 0 0 1 40.95730565 20.21269612l17.1010059 9.86698776c51.86152393 29.0424534 82.44652477 51.32961043 91.75500384 67.41998111 4.68083539 7.26061335 8.32443907 20.21269609 10.90421702 38.3509312a356.6477106 356.6477106 0 0 1 4.14892191 49.25515074l1.06382697 22.31375225c1.54254748 57.02108105-2.60637445 88.64331239-11.96804399 93.8294648-4.12232666 2.07446097-13.45740098 0-28.98926291-6.22338285-14.54782192-5.69146939-29.06904863-12.44676574-43.56368008-19.68078261-14.0159097-7.28720857-20.21269609-10.37230478-19.70737909-10.37230476-44.60091057-22.81907052-75.18591145-43.56368009-90.74436861-61.70191649-15.55845718-17.63291813-23.3243875-56.51576283-23.32438753-117.18044756-1.06382572-63.27105917 5.18615239-95.39860878 19.68078261-95.93052226m856.03429243-264.41398498c-58.59022376 29.52117514-99.04221242 42.49985436-121.3293695 39.38816293-10.90421827-2.07446097-24.89353148-6.72869987-42.5264496-13.48399622-17.6063229-7.23401812-32.12754958-13.98931321-44.57431532-20.74460959l-17.10100466-9.30847905c-1.56914396-1.06382572-3.11169143-1.56914396-4.68083537-2.6063732a188.21743832 188.21743832 0 0 0-10.90421829-6.22338284l-16.06377416-8.80316208c-5.18615239-2.60637445-10.37230478-6.22338289-16.56909243-9.84039128a350.79666728 350.79666728 0 0 1-15.55845715-10.90421827 110.2389833 110.2389833 0 0 1-10.90421703-9.30847781c-3.11169143-3.13828668-4.65423889-5.71806589-4.65424016-7.79252686 0.53191349-9.84039129 28.51053989-29.0424534 82.95184302-56.51576281 6.22338289-2.60637445 13.98931321-6.22338289 23.856301-10.90421828 9.84039129-4.65423889 24.361618-10.87762178 44.57431535-18.13823512 19.70737908-7.26061335 34.22860577-10.90421827 43.56368007-10.90421827 9.30847907 0 22.81907052 3.13828668 40.95730566 9.86698779a382.2327295 382.2327295 0 0 1 47.71260199 21.2765218l20.21269608 9.84039257c48.21791899 22.81907052 76.22314192 40.95730565 82.97843827 53.40407136 2.57977795 4.14892193 0.50531701 9.84039129-7.28720858 16.59568767-7.26061335 7.26061335-17.10100465 13.98931321-28.51053993 20.74460955-11.91485226 6.72869987-21.27652306 11.91485226-28.51054118 16.06377418-8.82975731 4.14892193-14.5212267 6.72869987-17.63291808 8.29784383m-677.65724541 96.94115624c4.14892193 7.26061335 7.26061335 20.21269609 9.84039129 38.37752771 2.60637445 18.13823513 4.14892193 34.73392277 5.18615241 49.25515069v22.28715704c1.56914396 57.04767631-2.57977795 88.66990765-11.91485226 93.85606006-4.14892193 2.07446097-13.48399622 0-28.5105399-6.22338288a555.31724067 555.31724067 0 0 1-43.56368011-19.70737909c-13.98931321-7.26061335-20.21269609-10.37230478-19.68078385-10.37230479-45.13282407-23.3243875-75.21250792-44.57431532-90.7443686-62.73914568-15.55845718-17.63291813-23.35098398-56.51576283-23.350984-117.18044879-1.54254748-63.24446394 5.18615239-95.39860878 19.20206209-95.90392578 6.72869987 0 17.63291813 3.11169143 32.65946183 9.84039254a600.15751211 600.15751211 0 0 1 40.95730566 20.2126961l17.10100587 9.84039132c51.86152393 29.57436687 82.97843826 51.86152393 92.81882957 68.45721155m338.56266594 421.54110546c4.68083539-7.26061335 15.02654373-16.59568765 30.05308865-28.00522292 13.51059146-9.84039129 28.03181815-19.17546561 42.55304484-28.0052229l20.21269735-11.91485351c4.65423889-2.60637445 10.90421827-6.22338289 19.17546559-10.90421704 8.29784382-4.65423889 20.21269609-10.87762178 36.80838374-18.13823635 16.59568765-7.26061335 28.00522293-10.90421827 34.73392402-9.84039131 14.0159097 0 20.21269609 31.62223134 18.16483035 94.86669529 0 61.170003-7.26061335 100.07944292-22.31375227 117.18044881-6.72869987 8.29784382-17.6063229 17.10100465-32.65946305 28.0052229a347.04668018 347.04668018 0 0 1-40.95730566 24.89353149l-17.10100464 9.8403913a83.88269004 83.88269004 0 0 0-9.33507431 5.18615239c-3.11169143 2.07446097-9.84039129 5.18615239-19.17546687 9.84039132a394.78587743 394.78587743 0 0 1-25.93076194 11.94144872c-7.26061335 3.11169143-15.05314018 5.69146939-22.81907053 8.29784383-7.26061335 2.07446097-12.44676574 2.57977795-15.0265437 1.03723049-4.68083539-2.07446097-8.29784382-10.90421827-9.84039131-26.96799246-2.10105619-15.02654373-2.60637445-30.58500087-2.10105743-46.14345803v-21.27652303c1.06382572-57.02108105 5.71806589-93.29755132 15.55845717-109.89323899m184.57383467-170.58452019c-6.72869987 8.29784382-17.6063229 17.10100465-33.16478007 28.00522287a772.33777149 772.33777149 0 0 1-40.42539342 25.9041655l-17.12759989 9.33507429a83.88269004 83.88269004 0 0 0-9.33507426 5.18615241 222.18008798 222.18008798 0 0 1-19.17546689 9.84039255 394.78587743 394.78587743 0 0 1-25.93076194 11.9414475 295.71706852 295.71706852 0 0 1-22.81907053 8.29784382c-7.26061335 2.07446097-12.44676574 2.57977795-15.02654371 1.03723049-4.68083539-2.07446097-8.29784382-10.90421827-9.8403913-26.96799244-2.10105619-15.02654373-2.60637445-30.58500087-2.10105742-46.14345805v-21.27652304c0.53191349-57.02108105 5.71806589-93.82946481 15.05314016-109.89323897 4.65423889-7.26061335 15.02654373-16.59568765 30.05308865-28.00522292 13.48399622-9.84039129 28.00522293-19.17546561 42.52644959-28.00522291l20.21269611-10.87762178c4.68083539-3.11169143 10.90421827-7.26061335 19.20206206-11.40953527 8.2712486-4.14892193 20.21269609-10.37230478 36.80838375-18.13823635 16.59568765-7.79252684 27.97862767-11.43613052 34.7339228-10.3723048 5.18615239 0 9.84039129 4.65423889 12.44676571 13.48399621 3.11169143 9.30847907 4.65423889 20.21269609 5.69147064 33.69669354 0.53191349 13.48399622 1.06382572 23.856301 1.06382572 30.58500087 0 7.26061335-0.53191349 12.44676574-1.06382572 16.59568767-1.03723048 63.77637616-8.29784382 102.65922212-21.78184004 117.18044881m75.71782492 24.36161798c4.65423889-7.26061335 15.02654373-16.59568765 30.05308737-28.00522289 14.0159097-9.84039129 28.00522293-19.68078388 42.52644961-29.01585814l20.21269734-10.90421705c4.68083539-2.57977795 10.90421827-6.22338289 19.20206084-10.90421826 8.2712486-4.65423889 20.21269609-10.87762178 36.80838497-18.11163988 16.59568765-7.26061335 27.97862767-10.90421827 34.73392281-10.90421829 13.98931321 0.53191349 20.21269609 32.65946184 18.1382351 95.93052226 0 60.63808951-7.26061335 99.54753068-22.28715703 117.18044756-6.75529634 8.2712486-17.63291813 17.10100465-33.1913753 27.97862766a548.96087913 548.96087913 0 0 1-40.42539343 24.89353148l-17.12759988 9.84039132-9.30847906 4.14892191a221.51519581 221.51519581 0 0 1-19.20206209 10.37230478 229.73325269 229.73325269 0 0 1-25.93076194 12.44676574 295.71706852 295.71706852 0 0 1-22.79247407 8.29784382c-7.26061335 2.07446097-12.44676574 2.60637445-15.05314016 1.06382696-4.65423889-2.60637445-8.29784382-11.968044-9.8403913-27.49990591-2.07446097-15.02654373-2.60637445-30.05308863-2.07446099-45.63814104v-21.24992656c1.03723048-57.02108105 6.22338289-93.85606004 15.55845721-109.91983547m-522.12586539-236.43535729c6.75529634-0.53191349 17.63291813 2.60637445 32.65946184 9.33507426a605.42345147 605.42345147 0 0 1 40.95730563 20.21269612l17.12760114 10.90421825c51.86152393 28.51053989 82.44652477 50.29237995 91.75500385 66.88806761 4.68083539 7.26061335 8.29784382 20.21269609 10.90421828 38.35093247a356.6477106 356.6477106 0 0 1 4.14892188 49.25514945l1.0372305 22.31375355c1.54254748 57.02108105-2.60637445 88.64331239-11.94144872 93.82946479-4.14892193 2.60637445-13.98931321 1.06382572-29.01585816-5.18615243a319.14783948 319.14783948 0 0 1-42.52644964-20.21269729l-20.21269607-10.90421701c-45.10622756-23.3243875-75.18591145-44.57431532-90.74436859-62.71255046-15.55845718-16.59568765-23.3243875-56.01044584-23.32438877-117.18044881v-16.06377418c0-7.26061335 0.53191349-17.63291813 1.03723048-31.11691436 0.53191349-13.48399622 2.57977795-24.89353148 5.69147064-33.69669354 3.11169143-9.33507431 7.26061335-14.0159097 12.44676571-14.01590842m33.19137532-65.31892493c0-4.14892193 7.26061335-10.90421827 21.27652178-20.21269606a682.97637647 682.97637647 0 0 1 41.46262391-25.42544497l20.21269609-9.8403913c54.44130187-27.47330946 91.75500385-41.48921912 111.99429641-41.48921913 8.80316082 0 22.28715705 3.6436049 40.42539344 10.37230478a552.47150536 552.47150536 0 0 1 47.71260198 20.74460956l20.21269608 9.8403913c48.21791899 23.35098398 76.22314192 41.48921912 82.97843828 54.46789836 1.54254748 1.54254748 1.54254748 3.08509619 0.53191346 5.6914694a30.95734043 30.95734043 0 0 1-4.68083539 7.76593033 62.71255047 62.71255047 0 0 1-8.29784384 8.29784382c-3.6436049 2.60637445-6.75529634 5.18615239-10.37230477 7.79252685-3.6436049 2.57977795-7.79252684 5.18615239-12.44676574 8.2978438l-12.44676572 7.76593035c-4.14892193 2.07446097-7.76593036 4.14892193-11.91485228 6.22338287-3.6436049 1.56914396-7.26061335 3.11169143-10.37230477 5.18615241l-7.26061336 3.11169141c-2.07446097 1.54254748-3.11169143 2.57977795-3.11169144 3.11169144-56.51576283 29.5477704-96.96775146 42.49985436-121.32937071 39.41475819-10.90421827-2.07446097-24.89353148-6.75529634-42.5264496-13.48399624-17.6063229-7.26061335-32.12754958-14.0159097-44.57431532-20.74460955l-17.10100466-9.33507432c-1.56914396-1.03723048-3.11169143-1.56914396-4.6808354-2.60637316a188.21743832 188.21743832 0 0 0-10.90421702-6.19678767c-5.69146939-3.11169143-10.87762178-6.22338289-16.0637754-9.33507428-5.18615239-3.11169143-10.37230478-6.22338289-16.56909117-9.84039131a161.08987198 161.08987198 0 0 1-15.55845717-10.37230478 66.70189842 66.70189842 0 0 1-10.9042183-9.86698777c-4.14892193-4.68083539-5.69146939-7.26061335-5.69146937-9.33507433m-47.18068977 436.03573569c-1.56914396-63.24446394 5.18615239-94.86669528 19.17546687-94.86669529 6.75529634-0.53191349 18.13823513 3.11169143 34.73392277 10.3723048a764.78460556 764.78460556 0 0 1 36.30306674 18.1382351c6.22338289 3.61700842 12.95208275 7.26061335 19.68078386 10.3723048l20.23929131 11.91485351a545.53003985 545.53003985 0 0 1 42.52644961 28.0052229c15.53186193 10.90421827 25.39884848 20.21269609 29.01585815 28.00522292 9.84039129 16.06377417 15.55845718 52.87215914 16.09037067 109.9198342v21.24992782c0.53191349 15.02654373-0.53191349 30.58500087-2.07446095 46.14345803-1.56914396 15.55845718-4.68083539 24.89353148-9.33507434 26.96799246-2.60637445 1.54254748-7.79252684 1.03723048-15.05314015-1.06382571a153.0047938 153.0047938 0 0 1-22.79247529-8.27124861c-7.79252684-3.6436049-16.09037066-7.26061335-25.93076196-11.94144872-9.33507431-4.65423889-16.06377417-8.29784382-19.68078262-9.84039132a78.05824195 78.05824195 0 0 1-8.82975728-5.18615239l-17.12760115-9.8403913a394.94545135 394.94545135 0 0 1-40.95730564-24.89353149c-15.02654373-10.37230478-25.90416671-19.68078388-32.65946182-28.0052229-15.55845718-16.59568765-23.3243875-55.98385061-23.32438878-117.18044881"  horiz-adv-x="1024" />

    
    </font>
</defs>
</svg>
